<svg width="294" height="335" viewBox="0 0 294 335" fill="none" xmlns="http://www.w3.org/2000/svg">
<path fill-rule="evenodd" clip-rule="evenodd" d="M139.204 15.2029C108.153 9.85072 72.4092 -11.2098 47.2873 7.78792C22.0751 26.8539 37.4739 67.963 29.1432 98.4334C21.4197 126.683 -3.54562 150.178 0.424927 179.192C4.67014 210.213 26.9529 235.391 50.6851 255.846C76.1446 277.789 105.677 301.395 139.204 298.804C172.216 296.253 194.486 265.869 218.302 242.893C238.72 223.194 260.237 203.159 266.914 175.599C273.327 149.131 263.828 122.274 253.648 97.011C244.111 73.3443 231.41 50.7922 210.64 35.9448C189.969 21.1683 164.254 19.5207 139.204 15.2029Z" fill="#F03E4E"/>
<path fill-rule="evenodd" clip-rule="evenodd" d="M150.722 48.2538C119.555 42.8837 83.6784 21.7527 58.4631 40.814C33.1572 59.9437 48.6132 101.19 40.2515 131.763C32.4993 160.106 7.44119 183.68 11.4265 212.791C15.6875 243.916 38.0531 269.179 61.8735 289.702C87.4276 311.718 117.07 335.403 150.722 332.804C183.856 330.244 206.209 299.758 230.113 276.705C250.608 256.941 272.204 236.838 278.907 209.187C285.344 182.63 275.808 155.683 265.591 130.335C256.019 106.59 243.271 83.9621 222.423 69.0651C201.675 54.2391 175.864 52.586 150.722 48.2538Z" stroke="#F9ECF0" stroke-width="3"/>
<path fill-rule="evenodd" clip-rule="evenodd" d="M172.23 27.8763C176.077 42.0539 181.091 73.9217 175.975 78.9206H143.606C143.603 78.8632 143.6 78.8059 143.597 78.7488C131.6 77.4211 122.269 67.2494 122.269 54.8982V31.459C122.269 18.2056 133.013 7.46167 146.266 7.46167H148.498C160.534 7.46167 170.5 16.3223 172.23 27.8763Z" fill="black"/>
<path fill-rule="evenodd" clip-rule="evenodd" d="M134.838 50.4226C129.695 44.3856 126.214 36.9872 126.796 28.697C128.472 4.81076 161.722 10.0654 168.19 22.1212C174.658 34.1769 173.889 64.7572 165.53 66.9119C162.197 67.7712 155.095 65.6663 147.867 61.3098L152.404 93.4055H125.616L134.838 50.4226Z" fill="#FFD2A9"/>
<path fill-rule="evenodd" clip-rule="evenodd" d="M142.079 46.3874C143.314 59.6451 142.819 74.7851 139.141 78.379H106.772C104.969 47.0445 122.399 59.1786 122.399 29.6763C123.485 28.6146 124.512 27.5637 125.528 26.6574L125.492 25.7898C131.097 14.3152 138.208 8.57788 146.825 8.57788C159.75 8.57788 163.83 14.5921 167.303 19.6982C164.706 28.6108 154.626 29.9324 145.669 35.4878C144.613 34.63 143.267 34.116 141.8 34.116C138.41 34.116 135.662 36.8644 135.662 40.2548C135.662 43.6452 138.41 46.3937 141.8 46.3937C141.894 46.3937 141.987 46.3916 142.079 46.3874Z" fill="black"/>
<path fill-rule="evenodd" clip-rule="evenodd" d="M258.833 158.734C263.731 152.984 267.046 145.938 266.492 138.043C264.896 115.295 233.23 120.299 227.07 131.781C220.91 143.262 221.642 172.385 229.603 174.437C232.778 175.256 239.541 173.251 246.424 169.102L242.104 199.669H267.615L258.833 158.734Z" fill="#7A4D24"/>
<path fill-rule="evenodd" clip-rule="evenodd" d="M215.767 115.864C216.296 114.007 217.717 112.417 219.632 111.945C220.096 111.831 220.576 111.785 221.053 111.804C221.225 111.811 221.273 111.86 221.353 111.74C221.412 111.651 221.414 111.434 221.438 111.33C221.514 111.005 221.609 110.684 221.727 110.372C222.128 109.307 222.801 108.364 223.613 107.569C225.131 106.083 227.182 105.058 229.314 104.872C230.48 104.77 231.638 104.96 232.741 105.339C233.312 105.536 233.866 105.781 234.405 106.051C234.567 106.132 235.094 106.531 235.257 106.505C235.437 106.477 235.799 106.03 235.945 105.917C237.753 104.53 239.987 103.984 242.239 104.001C244.782 104.02 247.23 104.147 249.351 105.697C249.8 106.025 250.227 106.384 250.635 106.762C250.849 106.962 251.056 107.168 251.255 107.383C251.374 107.513 251.49 107.646 251.602 107.782C251.792 108.014 251.762 108.09 252.028 107.928C253.048 107.308 254.231 107.018 255.422 107.165C256.13 107.252 256.818 107.464 257.471 107.744C257.694 107.839 258.209 108.218 258.446 108.222C258.681 108.226 259.189 107.874 259.431 107.784C260.74 107.301 262.151 107.182 263.526 107.405C264.945 107.636 266.339 108.202 267.541 108.984C268.12 109.361 268.624 109.778 269.029 110.337C269.204 110.579 269.362 110.834 269.561 111.058C269.677 111.189 269.907 111.324 269.969 111.49C269.932 111.391 271.521 110.778 271.671 110.739C272.47 110.53 273.283 110.572 274.066 110.83C275.537 111.314 276.802 112.4 277.842 113.513C278.376 114.084 278.843 114.716 279.24 115.39C279.43 115.712 279.604 116.044 279.763 116.383C279.84 116.547 279.891 116.752 279.992 116.9C280.123 117.091 280.211 117.094 280.448 117.177C281.652 117.599 282.75 118.313 283.585 119.278C284.431 120.254 284.979 121.455 285.209 122.721C285.223 122.796 285.231 123.105 285.275 123.145C285.334 123.201 285.577 123.176 285.668 123.187C285.985 123.224 286.3 123.279 286.611 123.353C287.184 123.488 287.741 123.688 288.269 123.949C290.324 124.966 291.795 126.873 292.514 129.019C293.269 131.271 293.256 133.85 292.353 136.06C292.208 136.417 292.034 136.764 291.83 137.091C291.705 137.293 291.665 137.293 291.746 137.504C291.837 137.739 292.002 137.967 292.11 138.197C292.46 138.946 292.706 139.74 292.86 140.551C293.114 141.882 293.24 143.28 292.99 144.621C292.873 145.243 292.671 145.852 292.361 146.406C292.203 146.689 292.019 146.957 291.81 147.205C291.702 147.334 291.587 147.457 291.467 147.575C291.398 147.642 291.308 147.701 291.25 147.776C291.107 147.959 291.077 147.809 291.151 148.078C291.254 148.454 291.487 148.825 291.63 149.192C291.777 149.569 291.91 149.952 292.031 150.338C292.278 151.12 292.486 151.917 292.616 152.727C292.867 154.282 292.823 155.939 292.087 157.367C291.772 157.978 291.321 158.513 290.774 158.93C290.506 159.134 290.216 159.309 289.911 159.454C289.755 159.528 289.555 159.56 289.484 159.711C289.407 159.874 289.521 160.197 289.547 160.379C289.773 161.961 289.887 163.622 289.416 165.172C288.983 166.6 288.03 167.86 286.792 168.695C284.39 170.314 281.152 170.223 278.628 168.927C277.97 168.589 277.355 168.169 276.806 167.674C275.408 169.556 272.531 169.497 270.488 168.961C267.942 168.293 265.899 166.522 264.722 164.197C263.113 166.156 259.736 165.52 258.62 163.395C258.347 162.875 258.185 162.302 258.105 161.721C258.063 161.416 258.09 161.109 258.058 160.806C258.018 160.42 257.76 160.046 257.612 159.673C257.324 158.947 257.145 158.197 257.137 157.414C257.133 157.005 257.185 156.606 257.224 156.201C257.259 155.836 257.158 155.495 257.1 155.135C257.753 155.243 258.548 155.067 259.164 154.877C259.767 154.691 260.333 154.202 260.759 153.755C261.748 152.718 262.352 151.358 262.765 150.004C263.673 147.032 263.301 143.468 260.312 141.837C258.92 141.077 254.749 141.08 253.091 141.455C251.347 141.85 249.371 145.697 249.273 146.059C249.213 146.283 249.244 146.56 249.038 146.709C248.586 147.037 247.841 146.468 247.508 146.187C246.933 145.702 246.522 145.057 246.167 144.403C245.393 142.979 244.769 141.452 244.328 139.893C243.988 138.691 243.771 137.452 243.327 136.28C242.885 135.115 242.188 134.073 241.104 133.413C239.926 132.695 238.575 132.316 237.281 131.865C235.999 131.418 234.738 130.871 233.744 129.922C233.526 129.713 233.313 129.491 233.137 129.246C232.998 129.052 232.861 128.68 232.649 128.557C232.32 128.366 231.84 128.864 231.556 129.044C230.152 129.936 228.981 131.179 228.037 132.537C227.098 133.888 226.327 135.188 225.701 136.696C225.236 137.815 224.946 139.247 224.129 140.164C223.765 140.573 221.053 140.821 220.175 140.464C219.297 140.106 218.313 139.178 218.018 138.597C217.716 138.001 217.644 137.348 217.773 136.696C217.849 136.313 218.004 135.954 218.089 135.578C218.16 135.262 218.225 134.963 218.379 134.673C218.67 134.124 219.169 133.729 219.77 133.564C219.144 132.987 218.626 132.297 218.267 131.526C217.895 130.724 217.579 129.75 217.489 128.87C217.416 128.156 217.529 127.416 217.92 126.802C218.33 126.158 219.057 125.737 219.686 125.336C218.725 124.584 217.903 123.67 217.227 122.658C215.913 120.69 215.1 118.21 215.767 115.864Z" fill="#191847"/>
<g clip-path="url(#clip0)">
<path fill-rule="evenodd" clip-rule="evenodd" d="M32.3268 145.436C27.1813 139.458 23.6987 132.132 24.2807 123.923C25.9574 100.27 59.2231 105.473 65.694 117.411C72.1649 129.349 71.3959 159.631 63.0329 161.765C59.6978 162.616 52.5929 160.531 45.3617 156.217L49.9006 188H23.1006L32.3268 145.436Z" fill="#CB9665"/>
<path fill-rule="evenodd" clip-rule="evenodd" d="M59.6547 109.539C59.0408 109.176 57.7565 108.411 57.1059 108.134C56.9519 108.067 55.8738 107.306 55.8448 107.316C55.0286 107.588 52.665 108.595 52.4622 109.464C52.4307 109.53 52.3999 109.592 52.3698 109.646C52.0349 110.249 51.7276 110.866 51.4344 111.491C50.7911 112.863 50.2358 114.298 49.7055 115.72C48.6725 118.492 47.775 121.327 46.9499 124.169C46.1099 127.063 45.397 129.99 44.5988 132.895C43.4504 137.075 41.9805 141.153 40.8399 145.332C40.1116 148 39.7065 150.7 39.8978 153.446C39.8997 153.479 39.9007 153.511 39.9038 153.545C39.9049 153.559 39.9067 153.572 39.9079 153.586C39.9404 154.008 39.9868 154.431 40.0486 154.856C40.1027 155.219 40.1569 155.583 40.2147 155.947C41.2565 153.891 42.0519 151.625 42.896 149.475C42.9786 149.264 43.0573 149.052 43.1343 148.839C43.4064 148.403 43.684 147.97 43.9646 147.539C45.7342 144.819 47.5108 142.109 49.2077 139.34C52.2599 134.359 55.2836 129.273 58.9021 124.699C59.9706 123.349 61.064 122.019 62.1191 120.657C62.7195 119.882 63.3043 119.094 63.8701 118.292C64.2746 117.719 66.0332 115.72 65.3964 114.52C65.0706 113.905 61.2471 110.48 59.6547 109.539Z" fill="#09074B"/>
<path fill-rule="evenodd" clip-rule="evenodd" d="M57.2993 108.234C57.8963 108.433 57.6059 107.203 57.0276 106.771C54.3489 104.766 44.1077 104.039 35.1956 105.87C29.2254 107.097 22.2818 110.15 17.5132 114.075C13.2144 117.613 10.258 123.286 8.73594 128.766C7.1378 134.521 6.89575 140.52 7.78612 146.421C7.98173 147.718 8.40204 148.953 8.63622 150.222C8.89995 151.65 9.03523 153.026 9.50536 154.416C9.79326 155.267 10.2825 156.101 10.5281 156.957C10.8085 157.934 10.6376 158.837 10.4331 159.831C10.0999 161.45 9.68671 163.065 9.09952 164.611C8.21775 166.933 7.14772 169.108 6.47684 171.517C5.58419 174.723 1.8502 185.156 4.579 188H56.5248C55.2167 184.468 51.2904 180.312 50.4956 176.532C50.0274 174.305 49.8047 169.441 49.7557 169.264C48.5851 161.277 46.2994 157.463 44.8678 156.079C43.4363 154.695 41.5296 154.269 41.4313 153.068C41.0253 148.103 43.0203 143.344 44.4833 138.71C46.2268 133.186 47.5046 127.525 49.3021 122.02C50.098 119.583 54.1997 107.203 57.2993 108.234Z" fill="#1813AC"/>
<path fill-rule="evenodd" clip-rule="evenodd" d="M39.0864 113.947C37.1276 120.099 36.7063 123.383 37.1276 131.789H36.1667C34.3716 123.856 35.9692 116.389 37.8787 113.947H39.0864ZM12.8069 129.824C16.4572 138.591 18.1216 143.768 28.3152 150.862L27.5281 151.408C17.4087 145.731 14.4618 138.96 12.0391 130.189L12.8069 129.824ZM27.8052 120.902C29.4632 133.346 29.9473 140.454 38.5844 154.066L37.6655 154.344C28.7764 142.492 27.3673 132.819 26.9473 120.97L27.8052 120.902ZM18.2644 157.866L19.0506 156.92C29.7788 160.246 28.5838 167.113 42.096 174.067L40.9669 174.744C29.1351 169.911 26.3693 159.545 18.2644 157.866Z" fill="black" fill-opacity="0.2"/>
</g>
<path fill-rule="evenodd" clip-rule="evenodd" d="M160.02 248.467C166.147 241.276 170.294 232.462 169.601 222.587C167.604 194.132 127.995 200.392 120.29 214.753C112.585 229.115 113.5 265.543 123.458 268.11C127.43 269.134 135.889 266.626 144.499 261.437L139.095 299.671H171.006L160.02 248.467Z" fill="#FCE3CD"/>
<path fill-rule="evenodd" clip-rule="evenodd" d="M142.905 225.729C141.683 242.745 138.452 251.252 133.211 251.252C125.349 251.252 118.679 246.261 115.23 246.261C112.715 246.261 113.276 249.408 114.943 251.741C116.318 253.666 123.015 255.522 123.015 258.506C123.015 261.49 117.724 259.181 117.724 260.951C117.724 263.879 116.794 269.383 121.876 269.383C127.018 269.383 141.762 267.509 144.289 259.877C145.919 254.952 146.974 244.745 147.452 229.257C147.764 229.22 148.081 229.201 148.403 229.201C152.809 229.201 156.381 232.773 156.381 237.179C156.381 239.415 155.46 241.437 153.977 242.886C155.823 245.491 157.892 248.213 160.263 251.022C169.168 245.679 175.777 230.037 167.07 215.012C164.664 207.651 159.215 203.719 152.781 201.894C147.569 199.713 142.158 199.467 137.591 200.775C128.637 201.542 120.642 204.273 118.376 205.894C118.376 214.371 120.019 216.886 134.047 216.664C137.495 218.484 140.145 221.619 142.905 225.729Z" fill="#FFD227"/>
<circle cx="222.5" cy="37.5" r="16.5" fill="#FFD227"/>
<circle cx="69.5" cy="51.5" r="8.5" fill="#F9ECF0"/>
<circle cx="37" cy="223" r="13.5" stroke="#1813AC" stroke-width="3"/>
<circle cx="261.5" cy="78.5" r="9" stroke="#1813AC" stroke-width="3"/>
<circle cx="209.5" cy="202.5" r="12.5" fill="#F9ECF0"/>
<path d="M131.645 168H152.935L165 188H121L131.645 168Z" fill="white"/>
<rect x="97" y="93" width="91" height="68" rx="8" fill="#F9ECF0" stroke="white" stroke-width="6"/>
<rect x="111" y="105" width="65" height="17" rx="2" fill="#F1DDE3"/>
<rect x="111" y="124" width="65" height="17" rx="2" fill="#F1DDE3"/>
<rect x="111" y="143" width="7" height="7" rx="2" fill="#F1DDE3"/>
<rect x="119" y="143" width="7" height="7" rx="2" fill="#F1DDE3"/>
<rect x="127" y="143" width="7" height="7" rx="2" fill="#F1DDE3"/>
<defs>
<clipPath id="clip0">
<rect width="67" height="84" fill="white" transform="translate(3 104)"/>
</clipPath>
</defs>
</svg>
