<svg width="451" height="425" viewBox="0 0 451 425" fill="none" xmlns="http://www.w3.org/2000/svg">
<path fill-rule="evenodd" clip-rule="evenodd" d="M172.269 131.753C196.763 138.89 211.73 161.687 233.277 175.343C255.009 189.116 284.809 190.987 299.284 212.253C314.397 234.457 316.679 263.893 311.483 290.242C306.415 315.943 290.145 337.862 270.991 355.741C253.143 372.401 228.851 377.351 206.84 387.922C179.792 400.911 156.809 425.771 126.812 424.982C94.5313 424.132 63.9095 406.73 41.4197 383.568C18.278 359.734 -3.69329 327.862 0.522994 294.917C4.71556 262.158 47.4376 249.529 62.346 220.055C76.3011 192.467 59.0267 150.963 83.1344 131.597C106.773 112.608 143.155 123.27 172.269 131.753Z" fill="#F9ECF0"/>
<rect x="266" y="34" width="118" height="35" rx="5" fill="#FFF8E0"/>
<rect x="266" y="75" width="118" height="35" rx="5" fill="#FFF8E0"/>
<rect x="266" y="116" width="118" height="35" rx="5" fill="#FFF8E0"/>
<rect x="266" y="155" width="118" height="35" rx="5" fill="#FFF8E0"/>
<rect x="266" y="193" width="118" height="35" rx="5" fill="#FFF8E0"/>
<path fill-rule="evenodd" clip-rule="evenodd" d="M159.377 174.826C156.273 171.183 154.172 166.718 154.523 161.716C155.535 147.301 175.6 150.472 179.503 157.747C183.407 165.022 182.943 183.477 177.898 184.777C175.887 185.295 171.601 184.025 167.239 181.396L169.977 200.765H153.812L159.377 174.826Z" fill="#814915"/>
<path fill-rule="evenodd" clip-rule="evenodd" d="M170.289 149.363C168.158 149.013 162.422 148.773 161.364 148.773C160.688 148.773 159.955 148.928 159.554 148.307C159.227 147.798 159.347 146.939 159.249 146.349C159.135 145.664 158.974 144.987 158.811 144.312C158.346 142.392 157.643 140.566 156.66 138.851C154.816 135.633 152.114 133.113 148.703 131.646C144.936 130.027 140.674 129.656 136.622 129.985C132.286 130.336 128.361 131.767 124.267 133.114C120.366 134.398 116.28 134.903 112.2 134.276C108.089 133.645 104.982 131.417 101.515 129.302C97.9649 127.137 93.9082 125.721 89.7117 126.046C85.7944 126.35 82.184 127.968 78.9448 130.129C75.9142 132.15 73.4135 134.582 72.0017 138.006C70.4829 141.688 70.4843 145.73 72.9818 148.984C76.602 153.701 83.3226 154.921 88.9139 154.8C92.1481 154.73 95.3243 154.139 98.3777 153.066C102.45 151.633 105.969 149.206 109.778 147.236C111.566 146.312 113.414 145.553 115.351 145.006C117.231 144.475 119.082 144.232 120.784 145.367C122.584 146.568 124.197 147.748 126.257 148.5C128.233 149.222 130.326 149.625 132.431 149.609C136.526 149.577 140.564 148.301 144.542 147.446C147.785 146.749 151.256 146.055 154.563 146.725C155.943 147.004 157.959 147.582 158.457 149.016C150.069 150.536 146.774 160.911 149.139 168.527C150.415 172.637 158.088 177.443 161.071 175.282C162.961 173.913 161.813 172.115 161.071 170.929C159.649 168.657 159.162 165.738 161.794 164.156C164.063 162.791 166.45 166.032 166.495 166.028C167.119 165.979 172.509 162.93 176.223 158.482C179.887 158.699 180.442 156.283 179.568 154.308C178.693 152.332 173.232 149.846 170.289 149.363Z" fill="#110D7B"/>
<path fill-rule="evenodd" clip-rule="evenodd" d="M149.777 256.686L199.827 340.36L237.35 411.1H245.432L182.562 256.686L149.777 256.686Z" fill="#997659"/>
<path fill-rule="evenodd" clip-rule="evenodd" d="M232.409 407.834C231.655 409.846 231.278 411.351 231.278 412.349C231.278 413.564 231.481 415.337 231.885 417.667C233.294 417.667 245.958 417.667 269.875 417.667C270.863 414.403 270.293 412.641 268.166 412.381C266.039 412.121 264.272 411.886 262.865 411.676L245.208 403.804C244.868 403.653 244.47 403.805 244.318 404.145C244.315 404.151 244.313 404.157 244.311 404.163L243.176 406.916C241.207 407.835 239.606 408.294 238.375 408.294C237.375 408.294 235.994 407.89 234.232 407.082L234.232 407.082C233.555 406.772 232.756 407.069 232.446 407.745C232.432 407.774 232.42 407.804 232.409 407.834Z" fill="#E4E4E4"/>
<path fill-rule="evenodd" clip-rule="evenodd" d="M226.929 399.772L242.515 395.057C235.687 374.643 227.317 352.178 217.407 327.662C207.496 303.146 196.853 279.487 185.476 256.686H141.455C154.103 285.529 167.512 311.736 181.681 335.307C195.851 358.879 210.933 380.368 226.929 399.772Z" fill="#C93240"/>
<path fill-rule="evenodd" clip-rule="evenodd" d="M146.488 256.686C141.764 286.09 132.653 323.656 131.793 324.816C131.22 325.589 110.584 332.503 69.8857 345.56L71.6316 352.687C120.164 345.685 145.737 340.252 148.349 336.389C152.268 330.594 171.835 284.816 179.413 256.686H146.488Z" fill="#814915"/>
<path fill-rule="evenodd" clip-rule="evenodd" d="M84.1924 339.4L87.2675 350.878C123.567 354.062 145.809 351.761 153.992 343.977C162.176 336.192 171.503 307.095 181.973 256.686H139.996C133.362 297.964 129.654 319.47 128.87 321.203C128.086 322.936 113.194 329.001 84.1924 339.4Z" fill="#F03E4E"/>
<path fill-rule="evenodd" clip-rule="evenodd" d="M71.8799 342.591C69.768 342.198 68.2203 342.089 67.2368 342.262C66.0407 342.473 64.3303 342.98 62.1057 343.783C62.3504 345.171 64.5494 357.642 68.7026 381.196C72.0882 381.602 73.7244 380.734 73.6114 378.595C73.4983 376.455 73.4229 374.674 73.3851 373.252L78.0711 354.496C78.1613 354.135 77.9418 353.769 77.5809 353.679C77.5747 353.678 77.5685 353.676 77.5623 353.675L74.6538 353.035C73.4071 351.255 72.6769 349.759 72.4631 348.547C72.2895 347.562 72.4474 346.132 72.937 344.256L72.937 344.256C73.1249 343.536 72.6936 342.8 71.9737 342.612C71.9427 342.604 71.9114 342.597 71.8799 342.591Z" fill="#E4E4E4"/>
<path fill-rule="evenodd" clip-rule="evenodd" d="M207.731 245.982L226.811 264.596C232.363 266.964 236.912 269.579 240.458 272.441C241.255 273.403 242.124 275.246 238.372 274.421C234.62 273.596 230.636 272.897 229.931 274.117C229.226 275.338 231.304 277.207 230.001 278.804C229.132 279.869 226.21 276.483 221.235 268.646L201.394 256.948L207.731 245.982ZM123.04 248.607L137.115 248.663C128.424 276.719 123.733 291.605 123.04 293.322C121.481 297.185 124.779 303.067 126.19 306.228C121.596 308.284 122.086 300.672 116.291 303.367C111.001 305.828 106.978 310.287 100.867 306.516C100.116 306.053 99.2924 304.307 101.282 302.943C106.237 299.545 113.379 293.598 114.344 291.64C115.66 288.97 118.559 274.626 123.04 248.607Z" fill="#814915"/>
<path fill-rule="evenodd" clip-rule="evenodd" d="M163.041 189.544L168.865 188.545C178.893 213.595 196.4 236.356 221.387 256.828L202.506 279.767C177.522 250.618 162.122 220.544 163.041 189.544Z" fill="#110D7B"/>
<path fill-rule="evenodd" clip-rule="evenodd" d="M137.65 262.739H189.515C177.499 233.523 171.491 208.705 171.491 188.284L155.846 185.953C143.551 205.728 140.078 230.074 137.65 262.739Z" fill="#DDE3E9"/>
<path fill-rule="evenodd" clip-rule="evenodd" d="M155.515 185.964C155.517 185.96 155.519 185.957 155.521 185.953H156.543C157.765 185.995 159.626 186.071 162.126 186.181L165.907 196.984C166.307 210.156 168.642 236.701 172.912 276.618H138.914C139.004 279.375 139.151 282.158 139.355 284.966H114.076C117.857 242.306 131.666 209.301 155.503 185.953L155.515 185.964V185.964Z" fill="#1813AC"/>
<path fill-rule="evenodd" clip-rule="evenodd" d="M141.16 241.342C142.128 258.528 144.55 270.375 148.428 276.884H138.923C138.507 264.519 139.253 252.672 141.16 241.342V241.342Z" fill="black" fill-opacity="0.1"/>
<path fill-rule="evenodd" clip-rule="evenodd" d="M146.481 256.003L163.246 248.209V256.003H146.481Z" fill="white" fill-opacity="0.2"/>
<path fill-rule="evenodd" clip-rule="evenodd" d="M365.801 171.207C368.917 167.55 371.026 163.069 370.673 158.047C369.658 143.578 349.516 146.761 345.598 154.064C341.68 161.366 342.146 179.891 347.21 181.196C349.229 181.716 353.531 180.441 357.909 177.802L355.161 197.244H371.388L365.801 171.207Z" fill="#FFC38C"/>
<path fill-rule="evenodd" clip-rule="evenodd" d="M352.755 155.123C354.957 156.354 356.524 158.663 358.41 161.69C358.87 161.509 359.37 161.41 359.894 161.41C362.134 161.41 363.95 163.227 363.95 165.467C363.95 166.604 363.482 167.632 362.728 168.369C363.667 169.694 364.719 171.078 365.924 172.506C370.423 169.807 373.769 161.941 369.474 154.348C365.778 139.137 344.838 148.578 340.809 146.013C339.928 151.533 342.769 155.983 352.755 155.123Z" fill="#FFE069"/>
<path fill-rule="evenodd" clip-rule="evenodd" d="M372.041 255.941L338.856 339.933L316.599 410.941H307.81L341.836 255.941L372.041 255.941Z" fill="#FFC38C"/>
<path fill-rule="evenodd" clip-rule="evenodd" d="M378.724 255.941C379.077 285.456 384.23 325.194 385.054 327.034C385.603 328.26 404.552 343.858 441.9 373.827L435.847 380.305C391.779 354.61 368.725 340.049 366.686 336.622C363.627 331.482 353.668 284.178 345.673 255.941H378.724Z" fill="#FFC38C"/>
<path fill-rule="evenodd" clip-rule="evenodd" d="M442.71 371.665C444.743 372.383 446.144 373.065 446.912 373.709C447.846 374.493 449.078 375.792 450.609 377.607C449.7 378.69 441.529 388.428 426.097 406.819C422.95 405.473 421.963 403.897 423.135 402.094C424.307 400.291 425.267 398.78 426.013 397.563L431.353 378.906C431.456 378.547 431.83 378.34 432.189 378.442C432.196 378.444 432.202 378.446 432.208 378.448L435.057 379.352C437.034 378.43 438.42 377.496 439.214 376.55C439.859 375.781 440.44 374.458 440.956 372.581L440.956 372.581C441.154 371.861 441.898 371.438 442.618 371.636C442.649 371.645 442.68 371.654 442.71 371.665Z" fill="#E4E4E4"/>
<path fill-rule="evenodd" clip-rule="evenodd" d="M320.197 407.663C320.954 409.682 321.332 411.193 321.332 412.195C321.332 413.415 321.129 415.194 320.723 417.533C319.308 417.533 306.597 417.533 282.589 417.533C281.598 414.257 282.17 412.488 284.305 412.227C286.44 411.966 288.213 411.73 289.626 411.519L307.35 403.618C307.691 403.466 308.091 403.619 308.243 403.96C308.245 403.966 308.248 403.972 308.25 403.977L309.39 406.741C311.366 407.663 312.972 408.124 314.208 408.124C315.212 408.124 316.599 407.719 318.368 406.908L318.368 406.908C319.047 406.597 319.849 406.895 320.16 407.574C320.174 407.603 320.186 407.633 320.197 407.663Z" fill="#E4E4E4"/>
<path fill-rule="evenodd" clip-rule="evenodd" d="M349.731 403.627L307.944 399.092L338.913 255.941H376.34L349.731 403.627Z" fill="black"/>
<path fill-rule="evenodd" clip-rule="evenodd" d="M433.259 363.376L405.849 395.82C376.979 364.289 360.148 343.714 355.355 334.097C350.562 324.48 346.254 298.428 342.43 255.941H384.566C386.655 293.319 388.063 312.878 388.79 314.618C389.517 316.357 404.34 332.61 433.259 363.376Z" fill="#151515"/>
<path fill-rule="evenodd" clip-rule="evenodd" d="M311.039 247.769L291.169 267.028C285.388 269.478 280.651 272.184 276.958 275.145C276.127 276.14 275.223 278.047 279.13 277.194C283.038 276.34 287.186 275.617 287.92 276.88C288.655 278.142 286.491 280.077 287.848 281.729C288.753 282.831 291.796 279.327 296.977 271.218L317.639 259.115L311.039 247.769ZM408.205 230.338L392.845 230.396C404.544 268.053 410.754 287.77 411.475 289.546C413.098 293.542 409.663 299.629 408.195 302.9C412.979 305.027 412.469 297.15 418.503 299.94C424.012 302.486 428.202 307.099 434.566 303.198C435.348 302.718 436.205 300.912 434.134 299.501C428.973 295.985 421.536 289.831 420.531 287.805C419.16 285.043 415.052 265.888 408.205 230.338Z" fill="#FFC38C"/>
<path fill-rule="evenodd" clip-rule="evenodd" d="M361.401 187.047L355.336 186.014C345.781 219.572 296.688 242.446 293.675 254.991C292.569 259.591 295.902 261.917 294.181 263.318L302.064 269.052C303.399 267.505 306.248 270.336 312.198 268.355C318.148 266.375 361.401 226.783 361.401 187.047Z" fill="#E23A4A"/>
<path fill-rule="evenodd" clip-rule="evenodd" d="M351.197 191.509C351.896 235.937 326.047 247.27 331.804 265.093C336.559 279.81 382.069 295.632 389.945 281.205C393.133 275.365 394.579 268.302 394.743 260.624C396.756 266.523 398.348 271.602 399.519 275.86C401.539 283.205 409.37 284.373 409.37 287.202L419.688 284.373C418.988 280.528 423.852 278.656 422.548 270.068C416.705 231.586 401.004 203.691 375.446 186.384L375.176 182.544C375.069 181.056 373.778 179.933 372.288 180.034L353.194 181.361C351.704 181.462 350.58 182.754 350.683 184.244C350.683 184.245 350.683 184.245 350.686 184.246L351.197 191.509Z" fill="#F03E4E"/>
<circle cx="75" cy="260" r="13" fill="#F03E4E"/>
<circle cx="217.5" cy="124.5" r="18" stroke="#F03E4E" stroke-width="3"/>
<circle cx="154" cy="386" r="10" fill="#1813AC"/>
<circle cx="252.5" cy="19.5" r="19.5" fill="#1813AC"/>
<circle cx="263.5" cy="329.5" r="10.5" fill="#FFE069"/>
<rect x="253" y="22" width="143" height="212" rx="14" stroke="#FFF0B9" stroke-width="8"/>
<circle cx="437" cy="196" r="12" fill="#1813AC"/>
<circle cx="284" cy="52" r="12" fill="#FBE595"/>
<circle cx="284" cy="93" r="12" fill="#FBE595"/>
<circle cx="284" cy="133" r="12" fill="#FBE595"/>
<circle cx="284" cy="172" r="12" fill="#FBE595"/>
<circle cx="284" cy="210" r="12" fill="#FBE595"/>
</svg>
