<svg width="384" height="363" viewBox="0 0 384 363" fill="none" xmlns="http://www.w3.org/2000/svg">
<path fill-rule="evenodd" clip-rule="evenodd" d="M183.289 20.0333C151.385 12.6657 117.286 12.5058 87.2192 25.5049C54.4006 39.6937 22.6668 62.5049 8.6969 95.5162C-5.17203 128.289 -1.59418 167.773 13.3466 200.068C26.8112 229.172 64.0864 236.757 85.1914 260.86C106.068 284.702 108.54 322.573 135.352 339.405C164.73 357.847 205.695 372.476 235.931 355.488C267.269 337.88 254.312 284.969 278.937 258.73C305.429 230.502 362.441 239.021 378.386 203.698C393.58 170.04 375.722 126.159 351.24 98.56C328.044 72.4104 286.228 78.9444 254.608 64.1599C228.769 52.079 211.067 26.4482 183.289 20.0333Z" fill="#FFE069"/>
<path fill-rule="evenodd" clip-rule="evenodd" d="M249.803 187.207C255.469 179.523 269.632 184.61 269.624 190.972C269.601 207.674 254.359 286.968 253.563 291.975C252.767 296.981 244.242 298.619 243.746 292.363C242.956 282.41 241.488 247.906 242.957 231.854C243.386 227.165 243.838 222.633 244.293 218.387C236.283 232.779 224.101 253.119 207.749 279.41L198.661 275.258C205.798 251.744 211.65 235.144 216.217 225.458C224.037 208.873 231.37 194.67 234.456 189.667C238.533 183.058 245.145 183.935 249.803 187.207Z" fill="#E9C1A0"/>
<path fill-rule="evenodd" clip-rule="evenodd" d="M199.311 262.199L230.504 188.305C237.976 176.285 258.928 190.751 256.38 197.723C250.594 213.552 221.17 264.795 219.446 269.511L199.311 262.199Z" fill="#0E098B"/>
<path fill-rule="evenodd" clip-rule="evenodd" d="M270.414 196.741C270.414 217.686 261.233 266.919 261.226 271.531L238.987 270.781C242.874 227.976 244.514 206.428 243.905 206.138C242.535 205.485 187.76 213.719 171.332 214.341C147.643 215.237 137.843 200.704 137.048 173.125H182.935C222.172 177.809 247.961 181.066 260.3 182.898C268.224 184.074 270.414 190.971 270.414 196.741Z" fill="#1813AC"/>
<path fill-rule="evenodd" clip-rule="evenodd" d="M160.745 85.8414C169.558 85.8414 172.763 75.2902 177.77 69.5C181.353 65.3573 187.467 66.5926 189.277 60.7928C193.827 46.2087 181.647 35.9441 165.757 35.9441C149.867 35.9441 139.153 44.9464 136.84 58.4794C134.526 72.0123 144.855 85.8414 160.745 85.8414Z" fill="#191847"/>
<path fill-rule="evenodd" clip-rule="evenodd" d="M161.72 76.4203C158.167 72.2495 155.762 67.138 156.164 61.4105C157.321 44.908 180.294 48.5384 184.762 56.8674C189.231 65.1965 188.7 86.3238 182.924 87.8125C180.621 88.4061 175.715 86.9519 170.721 83.9421L173.856 106.116H155.349L161.72 76.4203Z" fill="#E9C1A0"/>
<path fill-rule="evenodd" clip-rule="evenodd" d="M169.52 65.8044C168.848 65.4486 168.077 65.2466 167.258 65.2466C164.636 65.2466 162.511 67.3181 162.511 69.8733C162.511 70.9163 162.865 71.8786 163.462 72.6524C162.337 74.5066 161.57 76.4547 161.318 78.4574C157.419 78.4574 143.189 63.7043 157.365 49.824C171.541 35.9437 192.026 55.7586 185.871 56.9142C182.331 57.5786 175.203 60.9575 169.52 65.8044Z" fill="#191847"/>
<path fill-rule="evenodd" clip-rule="evenodd" d="M197.433 272.94C196.006 275.014 195.151 276.618 194.868 277.753C194.524 279.134 194.251 281.206 194.051 283.97C195.653 284.369 210.048 287.958 237.238 294.738C239.285 291.307 239.137 289.143 236.793 288.244C234.449 287.345 232.507 286.577 230.967 285.94L213.125 271.987C212.782 271.718 212.286 271.779 212.017 272.122C212.012 272.128 212.008 272.134 212.004 272.14L209.933 274.948C207.434 275.435 205.485 275.503 204.085 275.154C202.948 274.871 201.493 274.02 199.718 272.602L199.718 272.602C199.037 272.058 198.044 272.169 197.5 272.85C197.476 272.879 197.454 272.909 197.433 272.94Z" fill="#E4E4E4"/>
<path fill-rule="evenodd" clip-rule="evenodd" d="M242.54 280.568C241.657 282.925 241.216 284.688 241.216 285.858C241.216 287.281 241.453 289.358 241.927 292.088C243.578 292.088 258.414 292.088 286.436 292.088C287.593 288.264 286.925 286.2 284.433 285.895C281.941 285.59 279.871 285.315 278.223 285.069L257.535 275.847C257.137 275.669 256.671 275.848 256.493 276.246C256.49 276.253 256.487 276.26 256.484 276.267L255.155 279.492C252.848 280.569 250.973 281.107 249.531 281.107C248.359 281.107 246.741 280.634 244.676 279.687L244.676 279.687C243.883 279.324 242.947 279.672 242.583 280.464C242.568 280.498 242.553 280.533 242.54 280.568Z" fill="#E4E4E4"/>
<path fill-rule="evenodd" clip-rule="evenodd" d="M187.395 120.313L212.185 106.736C216.308 101.84 220.37 98.0379 224.371 95.3293C225.593 94.8189 227.731 94.51 225.732 98.0589C223.732 101.608 221.789 105.431 222.808 106.524C223.826 107.617 226.366 106.09 227.582 107.907C228.392 109.118 224.052 111.031 214.563 113.646L196.549 130.139L187.395 120.313ZM226.221 131.769L237.111 125.787C238.639 119.973 240.465 117.048 242.59 117.011C244.223 116.252 241.38 123.598 244.474 122.961C247.569 122.324 255.122 116.707 256.423 117.847C258.349 119.535 256.632 124.716 254.609 127.293C250.829 132.11 247.699 133.758 239.962 135.915C235.917 137.043 231.543 139.304 226.841 142.697L226.221 131.769Z" fill="#E9C1A0"/>
<path fill-rule="evenodd" clip-rule="evenodd" d="M175.322 117.289C184.005 117.197 195.584 115.363 207.94 107.521L212.792 118.341C204.269 126.799 192.286 133.748 181.809 133.454C173.551 133.222 169.331 123.234 175.322 117.289Z" fill="#D33342"/>
<path fill-rule="evenodd" clip-rule="evenodd" d="M187.013 134.642C196.231 136.941 211.69 134.23 233.389 126.508C238.771 137.643 241.259 145.581 240.853 150.323C222.239 160.047 206.285 164.382 193.14 164.668C193.558 172.467 192.609 179.889 189.42 186.669C182.864 200.61 144.474 187.7 131.567 190.241C123.483 163.989 139.112 153.321 139.125 136.524C139.139 118.129 153.909 89.8159 156.082 89.8159L175.899 89.8159C176.993 103.864 182.496 119.346 187.013 134.642Z" fill="#F03E4E"/>
<path fill-rule="evenodd" clip-rule="evenodd" d="M187.395 120.313L212.185 106.736C216.308 101.84 220.37 98.0379 224.371 95.3293C225.593 94.8189 227.731 94.51 225.732 98.0589C223.732 101.608 221.789 105.431 222.808 106.524C223.826 107.617 226.366 106.09 227.582 107.907C228.392 109.118 224.052 111.031 214.563 113.646L196.549 130.139L187.395 120.313ZM226.221 131.769L237.111 125.787C238.639 119.973 240.465 117.048 242.59 117.011C244.223 116.252 241.38 123.598 244.474 122.961C247.569 122.324 255.122 116.707 256.423 117.847C258.349 119.535 256.632 124.716 254.609 127.293C250.829 132.11 247.699 133.758 239.962 135.915C235.917 137.043 231.543 139.304 226.841 142.697L226.221 131.769Z" fill="#E9C1A0"/>
<path fill-rule="evenodd" clip-rule="evenodd" d="M175.322 117.289C184.005 117.197 195.584 115.363 207.94 107.521L212.792 118.341C204.269 126.799 192.286 133.748 181.809 133.454C173.551 133.222 169.331 123.234 175.322 117.289Z" fill="#D33342"/>
<path fill-rule="evenodd" clip-rule="evenodd" d="M187.013 134.642C196.231 136.941 211.69 134.23 233.389 126.508C238.771 137.643 241.259 145.581 240.853 150.323C222.239 160.047 206.285 164.382 193.14 164.668C193.558 172.467 192.609 179.889 189.42 186.669C182.864 200.61 144.474 187.7 131.567 190.241C123.483 163.989 139.112 153.321 139.125 136.524C139.139 118.129 153.909 89.8159 156.082 89.8159L175.899 89.8159C176.993 103.864 182.496 119.346 187.013 134.642Z" fill="#F03E4E"/>
<path d="M281.067 292.088H244.766C243.241 292.088 242.004 293.325 242.004 294.85C242.004 296.376 243.241 297.612 244.766 297.612H281.067C282.592 297.612 283.829 296.376 283.829 294.85C283.829 293.325 282.592 292.088 281.067 292.088Z" fill="#2F3676"/>
<path fill-rule="evenodd" clip-rule="evenodd" d="M134.68 177.662H219.118C223.476 177.662 227.01 181.195 227.01 185.553V224.221H129.945C128.201 224.221 126.788 222.808 126.788 221.065V185.553C126.788 181.195 130.321 177.662 134.68 177.662Z" fill="#2F3676"/>
<path fill-rule="evenodd" clip-rule="evenodd" d="M219.118 177.662H220.849C224.714 177.662 228.01 180.461 228.636 184.275L245.949 289.72H237.517" fill="#2F3676"/>
<path d="M242.003 305.503C249.848 305.503 256.208 299.144 256.208 291.299C256.208 283.454 249.848 277.094 242.003 277.094C234.158 277.094 227.799 283.454 227.799 291.299C227.799 299.144 234.158 305.503 242.003 305.503Z" fill="#191847"/>
<path fill-rule="evenodd" clip-rule="evenodd" d="M137.047 303.926C103.924 303.926 77.0723 277.074 77.0723 243.951C77.0723 210.827 103.924 183.976 137.047 183.976C170.171 183.976 197.022 210.827 197.022 243.951C197.022 277.074 170.171 303.926 137.047 303.926ZM137.047 292.878C164.069 292.878 185.974 270.972 185.974 243.951C185.974 216.929 164.069 195.024 137.047 195.024C110.026 195.024 88.1203 216.929 88.1203 243.951C88.1203 270.972 110.026 292.878 137.047 292.878Z" fill="#191847"/>
<path d="M140.206 191.866H133.893V296.034H140.206V191.866Z" fill="#191847"/>
<path d="M174.994 208.238L172.762 206.006C172.145 205.389 171.146 205.389 170.529 206.006L99.1042 277.431C98.4878 278.047 98.4878 279.047 99.1042 279.663L101.336 281.895C101.953 282.511 102.952 282.511 103.568 281.895L174.994 210.47C175.61 209.853 175.61 208.854 174.994 208.238Z" fill="#191847"/>
<path d="M189.132 245.529V242.372C189.132 241.5 188.425 240.794 187.554 240.794H86.5429C85.6712 240.794 84.9646 241.5 84.9646 242.372V245.529C84.9646 246.4 85.6712 247.107 86.5429 247.107H187.554C188.425 247.107 189.132 246.4 189.132 245.529Z" fill="#191847"/>
<path d="M172.76 281.895L174.992 279.663C175.609 279.047 175.609 278.047 174.992 277.431L103.567 206.006C102.951 205.389 101.951 205.389 101.335 206.006L99.103 208.238C98.4866 208.854 98.4866 209.853 99.103 210.47L170.528 281.895C171.145 282.512 172.144 282.512 172.76 281.895Z" fill="#191847"/>
<path d="M249.92 75.5075L270.26 81.0206L249.92 134.956L228.511 124.71L249.92 75.5075Z" fill="#C4C4C4"/>
<path d="M261.153 81.1618L265.982 81.0205L247.482 130.075L243.421 126.568L261.153 81.1618Z" fill="#F9F9F9"/>
<path d="M250.08 75.8888L224.753 61.3621L200.023 112.179L230.422 124.757L250.08 75.8888Z" fill="#C4C4C4"/>
<path d="M247.049 78.0244L227.041 66.2574L205.332 111.182L228.329 120.809L247.049 78.0244Z" fill="#ECE8E8"/>
<path d="M247.191 78.3725L261.847 80.6851L243.448 126.506L229.008 120.623L247.191 78.3725Z" fill="#ECE8E8"/>
<circle cx="74" cy="99" r="18.5" stroke="#F03E4E" stroke-width="3"/>
<circle cx="340.5" cy="172.5" r="9" stroke="#1813AC" stroke-width="3"/>
<circle cx="281" cy="11" r="11" fill="#1813AC"/>
<circle cx="109.5" cy="323.5" r="17.5" fill="#F03E4E"/>
<circle cx="54" cy="175" r="8" fill="#F9ECF0"/>
</svg>
