<svg width="479" height="496" viewBox="0 0 479 496" fill="none" xmlns="http://www.w3.org/2000/svg">
<path fill-rule="evenodd" clip-rule="evenodd" d="M254.239 88.1867C304.288 78.9431 359.416 30.8402 400.61 60.5952C441.799 90.3465 410.939 157.692 419.565 207.603C426.454 247.47 455.926 283.819 445.964 323.037C435.761 363.206 401.278 391.975 366.824 415.24C333.278 437.892 294.544 448.143 254.239 452.499C209.288 457.358 160.471 465.874 122.36 441.664C83.5025 416.979 59.7776 371.195 54.5156 325.623C49.7 283.918 79.7984 248.691 95.5832 209.76C109.948 174.331 112.236 131.547 142.656 108.237C173.352 84.7154 216.145 95.2223 254.239 88.1867Z" fill="#FFEBD3"/>
<path fill-rule="evenodd" clip-rule="evenodd" d="M243.405 46.953C303.743 35.7788 370.205 -22.3701 419.868 13.5991C469.524 49.5638 432.32 130.974 442.719 191.309C451.025 239.502 486.555 283.442 474.546 330.851C462.245 379.408 420.673 414.185 379.135 442.309C338.693 469.692 291.996 482.084 243.405 487.351C189.212 493.224 130.36 503.518 84.4138 474.252C37.5678 444.412 8.96537 389.067 2.6216 333.977C-3.18398 283.561 33.1021 240.978 52.132 193.916C69.45 151.088 72.2079 99.3689 108.882 71.191C145.889 42.7567 197.48 55.4579 243.405 46.953Z" stroke="#FFE069" stroke-width="3"/>
<path fill-rule="evenodd" clip-rule="evenodd" d="M243.405 46.953C303.743 35.7788 370.205 -22.3701 419.868 13.5991C469.524 49.5638 432.32 130.974 442.719 191.309C451.025 239.502 486.555 283.442 474.546 330.851C462.245 379.408 420.673 414.185 379.135 442.309C338.693 469.692 291.996 482.084 243.405 487.351C189.212 493.224 130.36 503.518 84.4138 474.252C37.5678 444.412 8.96537 389.067 2.6216 333.977C-3.18398 283.561 33.1021 240.978 52.132 193.916C69.45 151.088 72.2079 99.3689 108.882 71.191C145.889 42.7567 197.48 55.4579 243.405 46.953Z" stroke="#FFEBD3" stroke-width="3"/>
<path fill-rule="evenodd" clip-rule="evenodd" d="M243.405 46.953C303.743 35.7788 370.205 -22.3701 419.868 13.5991C469.524 49.5638 432.32 130.974 442.719 191.309C451.025 239.502 486.555 283.442 474.546 330.851C462.245 379.408 420.673 414.185 379.135 442.309C338.693 469.692 291.996 482.084 243.405 487.351C189.212 493.224 130.36 503.518 84.4138 474.252C37.5678 444.412 8.96537 389.067 2.6216 333.977C-3.18398 283.561 33.1021 240.978 52.132 193.916C69.45 151.088 72.2079 99.3689 108.882 71.191C145.889 42.7567 197.48 55.4579 243.405 46.953Z" stroke="#FFEBD3" stroke-width="3"/>
<path fill-rule="evenodd" clip-rule="evenodd" d="M244.519 71.7501C298.887 61.6207 358.772 8.90842 403.521 41.5146C448.264 74.1168 414.741 147.916 424.111 202.61C431.595 246.296 463.61 286.128 452.788 329.105C441.705 373.122 404.246 404.648 366.819 430.142C330.378 454.965 288.301 466.198 244.519 470.972C195.688 476.297 142.659 485.628 101.259 459.098C59.0484 432.048 33.2762 381.877 27.5601 331.939C22.329 286.237 55.0246 247.634 72.1716 204.972C87.776 166.149 90.261 119.265 123.306 93.7219C156.652 67.9461 203.138 79.4598 244.519 71.7501Z" stroke="#FFE069" stroke-width="3"/>
<path fill-rule="evenodd" clip-rule="evenodd" d="M244.519 71.7501C298.887 61.6207 358.772 8.90842 403.521 41.5146C448.264 74.1168 414.741 147.916 424.111 202.61C431.595 246.296 463.61 286.128 452.788 329.105C441.705 373.122 404.246 404.648 366.819 430.142C330.378 454.965 288.301 466.198 244.519 470.972C195.688 476.297 142.659 485.628 101.259 459.098C59.0484 432.048 33.2762 381.877 27.5601 331.939C22.329 286.237 55.0246 247.634 72.1716 204.972C87.776 166.149 90.261 119.265 123.306 93.7219C156.652 67.9461 203.138 79.4598 244.519 71.7501Z" stroke="#FFEBD3" stroke-width="3"/>
<path fill-rule="evenodd" clip-rule="evenodd" d="M244.519 71.7501C298.887 61.6207 358.772 8.90842 403.521 41.5146C448.264 74.1168 414.741 147.916 424.111 202.61C431.595 246.296 463.61 286.128 452.788 329.105C441.705 373.122 404.246 404.648 366.819 430.142C330.378 454.965 288.301 466.198 244.519 470.972C195.688 476.297 142.659 485.628 101.259 459.098C59.0484 432.048 33.2762 381.877 27.5601 331.939C22.329 286.237 55.0246 247.634 72.1716 204.972C87.776 166.149 90.261 119.265 123.306 93.7219C156.652 67.9461 203.138 79.4598 244.519 71.7501Z" stroke="#FFEBD3" stroke-width="3"/>
<path fill-rule="evenodd" clip-rule="evenodd" d="M258.624 96.3914C261.982 90.4074 263.705 83.5469 261.837 76.6108C256.454 56.6261 229.142 66.6578 225.66 77.9704C222.178 89.2829 227.902 115.099 235.345 115.526C238.313 115.696 243.983 112.72 249.387 107.812L250.866 135.804L273.571 131.313L258.624 96.3914Z" fill="#8B5829"/>
<path fill-rule="evenodd" clip-rule="evenodd" d="M235.959 77.4584C239.376 78.5749 242.2 81.3739 245.668 85.0921C246.261 84.7124 246.934 84.4353 247.666 84.2907C250.799 83.6719 253.836 85.7134 254.451 88.8506C254.762 90.4431 254.39 92.0119 253.537 93.2516C255.213 94.8475 257.063 96.495 259.141 98.1618C264.691 93.1403 267.214 81.202 259.126 71.7556C249.789 51.4782 223.095 70.4813 216.758 68.0021C217.039 75.974 222.231 81.4213 235.959 77.4584Z" fill="#463801"/>
<path fill-rule="evenodd" clip-rule="evenodd" d="M299.661 208.799L267.121 321.242L251.816 405.665H236.454L251.788 208.799H299.661Z" fill="#8B5829"/>
<path fill-rule="evenodd" clip-rule="evenodd" d="M314.286 208.799C312.015 267.213 312.911 299.073 313.419 304.38C313.927 309.687 316.812 345.23 336.471 407.446H320.493C294.458 347.761 285.37 312.217 282.383 304.38C279.397 296.542 270.578 264.682 257.703 208.799H314.286Z" fill="#8B5829"/>
<path fill-rule="evenodd" clip-rule="evenodd" d="M300.36 208.799C291.896 247.491 277.257 309.253 256.442 394.085H233.974C232.314 307.013 239.374 249.705 251.599 208.799H300.36Z" fill="#F9D54B"/>
<path fill-rule="evenodd" clip-rule="evenodd" d="M314.4 208.799C312.176 267.213 317.939 324.761 335.79 394.994H311.817C285.735 336.199 267.04 278.935 254.264 208.799H314.4Z" fill="#FFE069"/>
<path fill-rule="evenodd" clip-rule="evenodd" d="M338.748 419.027L337.866 404.774C332.705 406.288 326.24 405.694 318.471 402.992C310.118 408.926 299.603 412.977 286.926 415.147C285.958 415.312 285.308 416.233 285.473 417.203C285.484 417.265 285.498 417.328 285.515 417.389L286.734 421.699H318.471H336.985L338.748 419.027Z" fill="#F03E4E"/>
<path fill-rule="evenodd" clip-rule="evenodd" d="M255.245 419.027L254.364 404.774C249.202 406.288 242.737 405.694 234.968 402.992C226.615 408.926 216.1 412.977 203.423 415.147C202.455 415.312 201.805 416.233 201.97 417.203C201.981 417.265 201.995 417.328 202.012 417.389L203.231 421.699H234.968H253.482L255.245 419.027Z" fill="#F03E4E"/>
<path fill-rule="evenodd" clip-rule="evenodd" d="M236.111 158.706L202.812 147.418C196.706 142.302 190.91 138.517 185.424 136.06C183.816 135.699 181.13 135.783 184.344 139.706C187.559 143.629 190.764 147.9 189.751 149.463C188.739 151.026 185.298 149.703 184.2 152.196C183.469 153.859 189.198 155.266 201.388 156.417L227.012 172.755L236.111 158.706ZM191.009 181.195L176.378 176.215C173.253 169.409 170.385 166.215 167.773 166.631C165.61 166.053 170.676 174.455 166.747 174.344C162.818 174.234 152.354 168.977 151.005 170.659C149.01 173.149 152.229 179.137 155.263 181.862C160.933 186.955 165.123 188.298 175.067 189.267C180.266 189.773 186.112 191.6 192.604 194.745L191.009 181.195Z" fill="#8B5829"/>
<path fill-rule="evenodd" clip-rule="evenodd" d="M250.244 152.39C239.585 154.161 225.002 154.423 208.174 147.479L204.561 161.81C216.825 170.34 233.005 176.268 245.779 173.634C255.846 171.558 258.865 158.386 250.244 152.39Z" fill="#100C81"/>
<path fill-rule="evenodd" clip-rule="evenodd" d="M239.664 176.243C228.864 181.066 209.338 181.093 181.086 176.323C176.891 191.162 175.553 201.448 177.072 207.182C201.976 215.08 222.459 216.939 238.627 214.438C239.796 224.104 242.558 233.009 247.927 240.642C258.964 256.335 303.221 232.151 319.585 232.47C323.832 198.485 302.383 188.779 298.748 168.16C294.767 145.579 270.568 114.022 267.905 114.494L243.622 118.795C245.31 136.28 241.902 156.483 239.664 176.243Z" fill="#1813AC"/>
<circle cx="209" cy="110" r="5" fill="#F03E4E"/>
<circle cx="180.5" cy="91.5" r="9.5" fill="#1813AC"/>
<circle cx="143" cy="112" r="16" fill="#FFE069"/>
</svg>
