<svg width="328" height="419" viewBox="0 0 328 419" fill="none" xmlns="http://www.w3.org/2000/svg">
<path fill-rule="evenodd" clip-rule="evenodd" d="M171.562 97.1106C201.64 98.2907 235.318 80.2539 259.652 98.0317C283.986 115.809 278.51 153.063 287.572 181.863C296.528 210.324 316.801 236.075 312.377 265.589C307.595 297.486 290.78 329.733 262.978 345.927C235.959 361.665 202.716 349.954 171.562 347.613C143.184 345.48 114.492 346.699 89.5808 332.897C62.2955 317.778 38.8967 295.633 26.2021 267.071C12.5711 236.402 7.3207 201.437 16.8451 169.245C26.5072 136.587 47.5287 105.274 78.3194 90.9179C107.276 77.4173 139.656 95.859 171.562 97.1106Z" fill="#FFEBD3"/>
<path fill-rule="evenodd" clip-rule="evenodd" d="M183.283 102.436C179.246 97.6975 176.513 91.8901 176.97 85.3828C178.285 66.6335 204.385 70.7581 209.462 80.2212C214.539 89.6842 213.936 113.688 207.374 115.379C204.758 116.054 199.183 114.402 193.51 110.982L197.071 136.175H176.044L183.283 102.436Z" fill="#57331F"/>
<path fill-rule="evenodd" clip-rule="evenodd" d="M194.561 87.453C195.366 98.6648 197.495 104.271 200.948 104.271C206.128 104.271 210.523 100.982 212.796 100.982C214.453 100.982 214.083 103.056 212.985 104.593C212.079 105.861 207.666 107.084 207.666 109.05C207.666 111.017 211.153 109.495 211.153 110.662C211.153 112.591 211.765 116.218 208.417 116.218C205.029 116.218 195.314 114.983 193.649 109.954C192.574 106.708 191.88 99.9829 191.565 89.7776C191.359 89.7532 191.15 89.7406 190.938 89.7406C188.034 89.7406 185.681 92.0941 185.681 94.9973C185.681 96.4711 186.287 97.8033 187.265 98.7578C186.048 100.475 184.685 102.268 183.123 104.119C177.255 100.598 172.9 90.2916 178.637 80.3909C180.223 75.5407 183.813 72.95 188.053 71.747C191.487 70.3104 195.053 70.1484 198.062 71.0097C203.962 71.5157 209.23 73.3147 210.723 74.3831C210.723 79.9685 209.641 81.6257 200.397 81.4796C198.126 82.6792 196.379 84.7448 194.561 87.453Z" fill="#F03E4E"/>
<path fill-rule="evenodd" clip-rule="evenodd" d="M174.357 208.675L217.359 317.513L246.2 409.526H257.589L213.497 208.675L174.357 208.675Z" fill="#3D2216"/>
<path fill-rule="evenodd" clip-rule="evenodd" d="M165.697 208.675C165.239 246.922 158.561 298.414 157.495 300.798C156.783 302.387 132.229 322.599 83.832 361.433L91.6761 369.827C148.78 336.532 178.653 317.664 181.296 313.223C185.26 306.562 198.164 245.265 208.525 208.675H165.697Z" fill="#57331F"/>
<path fill-rule="evenodd" clip-rule="evenodd" d="M82.7833 358.631C80.1489 359.562 78.3342 360.445 77.3391 361.28C76.1288 362.296 74.5319 363.979 72.5484 366.331C73.7265 367.735 84.3142 380.353 104.312 404.185C108.389 402.439 109.668 400.398 108.149 398.061C106.63 395.724 105.387 393.767 104.42 392.19L97.4999 368.015C97.3667 367.549 96.8817 367.28 96.4165 367.413C96.4086 367.416 96.4006 367.418 96.3927 367.421L92.7004 368.592C90.1387 367.398 88.3432 366.188 87.3139 364.961C86.4777 363.964 85.7253 362.25 85.0568 359.819L85.0568 359.819C84.8002 358.886 83.8358 358.337 82.9027 358.594C82.8625 358.605 82.8227 358.617 82.7833 358.631Z" fill="#E4E4E4"/>
<path fill-rule="evenodd" clip-rule="evenodd" d="M241.537 405.277C240.556 407.894 240.066 409.852 240.066 411.151C240.066 412.731 240.33 415.036 240.856 418.067C242.689 418.067 259.16 418.067 290.271 418.067C291.555 413.822 290.814 411.53 288.047 411.192C285.28 410.853 282.982 410.547 281.152 410.275L258.185 400.036C257.743 399.839 257.225 400.037 257.028 400.479C257.024 400.487 257.021 400.494 257.018 400.502L255.541 404.083C252.98 405.278 250.899 405.876 249.298 405.876C247.997 405.876 246.2 405.35 243.908 404.299L243.908 404.299C243.028 403.896 241.988 404.282 241.585 405.162C241.567 405.2 241.551 405.238 241.537 405.277Z" fill="#E4E4E4"/>
<path fill-rule="evenodd" clip-rule="evenodd" d="M203.27 400.048L257.418 394.172L217.287 208.675H168.789L203.27 400.048Z" fill="#141094"/>
<path fill-rule="evenodd" clip-rule="evenodd" d="M95.0342 347.891L130.552 389.932C167.962 349.073 189.773 322.413 195.983 309.951C202.193 297.489 207.776 263.731 212.731 208.675H158.131C155.424 257.111 153.599 282.455 152.657 284.709C151.715 286.963 132.507 308.024 95.0342 347.891Z" fill="#1813AC"/>
<path fill-rule="evenodd" clip-rule="evenodd" d="M250.991 197.812L275.81 222.023C283.031 225.104 288.948 228.505 293.56 232.227C294.598 233.478 295.727 235.875 290.847 234.803C285.967 233.73 280.785 232.821 279.868 234.408C278.951 235.995 281.653 238.427 279.958 240.504C278.828 241.889 275.027 237.484 268.556 227.291L242.748 212.075L250.991 197.812ZM129.628 175.899L148.813 175.971C134.202 223.311 126.445 248.098 125.544 250.331C123.517 255.355 127.807 263.007 129.641 267.119C123.666 269.792 124.303 259.891 116.765 263.397C109.886 266.598 104.652 272.398 96.7033 267.493C95.726 266.89 94.6551 264.62 97.2426 262.845C103.689 258.425 112.978 250.689 114.233 248.143C115.945 244.671 121.077 220.589 129.628 175.899Z" fill="#57331F"/>
<path fill-rule="evenodd" clip-rule="evenodd" d="M188.086 121.477L195.662 120.177C207.597 162.364 268.915 191.12 272.679 206.891C274.06 212.674 269.897 215.598 272.048 217.359L262.2 224.568C260.533 222.622 256.974 226.181 249.543 223.692C242.112 221.202 188.086 171.429 188.086 121.477Z" fill="#FFD842"/>
<path fill-rule="evenodd" clip-rule="evenodd" d="M200.831 127.086C199.957 182.938 232.244 197.185 225.052 219.59C219.114 238.092 162.27 257.982 152.433 239.846C148.452 232.504 146.645 223.625 146.44 213.972C143.926 221.388 141.938 227.773 140.475 233.126C137.952 242.36 128.17 243.828 128.17 247.385L115.283 243.828C116.157 238.995 110.082 236.642 111.711 225.845C119.009 177.468 138.62 142.401 170.542 120.644L170.872 115.921C171.007 113.99 172.682 112.534 174.613 112.669L198.21 114.319C200.141 114.454 201.597 116.129 201.462 118.06L200.831 127.086Z" fill="#FFE069"/>
<path d="M258.368 76.1363C258.368 79.3679 255.735 81.9876 252.488 81.9876C249.24 81.9876 246.608 79.3679 246.608 76.1363C246.608 72.9048 249.24 70.2851 252.488 70.2851C255.735 70.2851 258.368 72.9048 258.368 76.1363ZM241.422 83.7596C238.858 83.7596 236.779 85.8281 236.779 88.3798C236.779 90.9315 238.857 93 241.422 93C243.986 93 246.065 90.9315 246.065 88.3798C246.065 85.8281 243.986 83.7596 241.422 83.7596ZM308.857 22.2401C307.059 22.2388 305.271 22.4892 303.544 22.984C303.817 21.69 303.954 20.3713 303.953 19.0492C303.953 8.5287 295.383 0 284.81 0C275.965 0 268.523 5.9691 266.326 14.0793C263.588 9.72221 258.727 6.82197 253.182 6.82197C244.625 6.82197 237.688 13.7248 237.688 22.2401C237.684 24.8731 238.362 27.4627 239.656 29.7603C232.277 32.4049 227 39.4325 227 47.6872C227 58.2077 235.571 66.7364 246.143 66.7364C250.651 66.7364 254.795 65.1851 258.065 62.5907C259.956 66.4493 263.935 69.1086 268.539 69.1086C270.88 69.1119 273.166 68.4104 275.097 67.0964C278.032 70.7987 282.576 73.1784 287.683 73.1784C295.728 73.1784 302.386 67.2787 303.531 59.5906C305.262 60.0879 307.055 60.3397 308.857 60.3385C319.429 60.3385 328 51.8098 328 41.2893C328 30.7688 319.429 22.2401 308.857 22.2401Z" fill="#F03E4E"/>
<circle cx="81" cy="89" r="26" fill="#1813AC"/>
<circle cx="44.5" cy="204.5" r="13" stroke="#1813AC" stroke-width="5"/>
<circle cx="297.5" cy="109.5" r="10.5" fill="#1813AC"/>
<circle cx="300" cy="333" r="13" fill="#FFE069"/>
<circle cx="176" cy="34" r="16" stroke="#FFE069" stroke-width="6"/>
<circle cx="72.5" cy="305.5" r="11.5" fill="#F03E4E"/>
<circle cx="6.5" cy="86.5" r="6.5" fill="#F03E4E"/>
</svg>
