<svg width="378" height="376" viewBox="0 0 378 376" fill="none" xmlns="http://www.w3.org/2000/svg">
<path fill-rule="evenodd" clip-rule="evenodd" d="M176.539 0.13262C206.666 -2.28438 227.311 28.9084 251.534 46.9534C275.364 64.7062 307.771 76.221 316.688 104.538C325.59 132.806 306.639 161.071 296.204 188.812C286.313 215.109 277.875 241.918 257.663 261.462C235.113 283.268 207.638 308.817 176.539 304.523C145.458 300.232 137.063 257.344 110.23 241.107C79.0648 222.248 29.6794 234.726 10.2901 203.922C-8.81042 173.576 0.92439 129.201 21.1607 99.5982C40.0023 72.0353 81.6812 76.3355 109.819 58.3228C135.303 42.0095 146.364 2.55354 176.539 0.13262Z" fill="#1813AC"/>
<rect x="67" y="91" width="293" height="186" rx="5" fill="#F9ECF0"/>
<rect x="67" y="271" width="293" height="12" fill="#F03E4E"/>
<path d="M6 183.038C6 183.038 19.2328 172.311 29 173.038C37.3617 173.661 39.6252 182.627 48 183.038C57.2489 183.493 60.2725 172.263 69.5 173.038C77.3437 173.697 79.1563 182.38 87 183.038C96.2275 183.813 108.5 173.038 108.5 173.038" stroke="#F03E4E" stroke-width="4"/>
<path d="M109 123.96C109 123.96 117.908 113.316 124.483 114.038C130.112 114.656 131.636 123.552 137.273 123.96C143.499 124.412 145.535 113.269 151.746 114.038C157.026 114.692 158.247 123.307 163.527 123.96C169.739 124.729 178 114.038 178 114.038" stroke="white" stroke-width="4"/>
<circle cx="185" cy="158" r="12.5" stroke="#FFE069" stroke-width="3"/>
<circle cx="46.5" cy="152.5" r="5.5" fill="#F03E4E"/>
<circle cx="218.5" cy="36.5" r="10.5" fill="#FFE069"/>
<circle cx="286.5" cy="304.5" r="14.5" fill="#F9ECF0"/>
<circle cx="116.5" cy="18.5" r="7.5" fill="white"/>
<path d="M86.6113 207.14H84.4513V206.44H89.6113V207.14H87.4513V213H86.6113V207.14ZM91.8173 206.44H92.6573V209.19H95.3973V206.44H96.2373V213H95.3973V209.91H92.6573V213H91.8173V206.44ZM99.1734 206.44H103.223V207.14H100.013V209.2H102.723V209.91H100.013V212.29H103.323V213H99.1734V206.44ZM114.596 207.14H112.436V206.44H117.596V207.14H115.436V213H114.596V207.14ZM119.802 206.44H120.642V209.19H123.382V206.44H124.222V213H123.382V209.91H120.642V213H119.802V206.44ZM127.158 206.44H131.208V207.14H127.998V209.2H130.708V209.91H127.998V212.29H131.308V213H127.158V206.44ZM136.004 213.12C135.631 213.12 135.291 213.04 134.984 212.88C134.677 212.72 134.411 212.493 134.184 212.2C133.964 211.9 133.791 211.54 133.664 211.12C133.544 210.693 133.484 210.217 133.484 209.69C133.484 209.163 133.544 208.693 133.664 208.28C133.791 207.86 133.964 207.507 134.184 207.22C134.411 206.927 134.677 206.703 134.984 206.55C135.291 206.397 135.631 206.32 136.004 206.32C136.371 206.32 136.707 206.4 137.014 206.56C137.327 206.713 137.594 206.937 137.814 207.23C138.041 207.517 138.214 207.87 138.334 208.29C138.461 208.703 138.524 209.17 138.524 209.69C138.524 210.217 138.461 210.693 138.334 211.12C138.214 211.54 138.041 211.9 137.814 212.2C137.594 212.493 137.327 212.72 137.014 212.88C136.707 213.04 136.371 213.12 136.004 213.12ZM136.004 212.39C136.251 212.39 136.477 212.327 136.684 212.2C136.891 212.073 137.064 211.893 137.204 211.66C137.351 211.42 137.464 211.137 137.544 210.81C137.624 210.477 137.664 210.103 137.664 209.69C137.664 209.283 137.624 208.917 137.544 208.59C137.464 208.263 137.351 207.987 137.204 207.76C137.064 207.533 136.891 207.36 136.684 207.24C136.477 207.113 136.251 207.05 136.004 207.05C135.751 207.05 135.521 207.113 135.314 207.24C135.114 207.36 134.941 207.533 134.794 207.76C134.654 207.987 134.544 208.263 134.464 208.59C134.384 208.917 134.344 209.283 134.344 209.69C134.344 210.103 134.384 210.477 134.464 210.81C134.544 211.137 134.654 211.42 134.794 211.66C134.941 211.893 135.114 212.073 135.314 212.2C135.521 212.327 135.751 212.39 136.004 212.39ZM141.83 209.55H142.92C143.433 209.55 143.823 209.447 144.09 209.24C144.363 209.027 144.5 208.707 144.5 208.28C144.5 207.847 144.363 207.543 144.09 207.37C143.823 207.197 143.433 207.11 142.92 207.11H141.83V209.55ZM144.58 213L143 210.23H141.83V213H141V206.44H143.04C143.373 206.44 143.68 206.473 143.96 206.54C144.24 206.6 144.48 206.703 144.68 206.85C144.887 206.997 145.047 207.187 145.16 207.42C145.273 207.653 145.33 207.94 145.33 208.28C145.33 208.793 145.197 209.203 144.93 209.51C144.663 209.817 144.307 210.027 143.86 210.14L145.53 213H144.58ZM149.576 210.66L147.376 206.44H148.256L149.246 208.39C149.373 208.643 149.496 208.897 149.616 209.15C149.736 209.397 149.863 209.653 149.996 209.92H150.036C150.169 209.653 150.299 209.393 150.426 209.14C150.553 208.887 150.679 208.633 150.806 208.38L151.756 206.44H152.616L150.416 210.66V213H149.576V210.66ZM163.988 213.12C163.615 213.12 163.275 213.04 162.968 212.88C162.662 212.72 162.395 212.493 162.168 212.2C161.948 211.9 161.775 211.54 161.648 211.12C161.528 210.693 161.468 210.217 161.468 209.69C161.468 209.163 161.528 208.693 161.648 208.28C161.775 207.86 161.948 207.507 162.168 207.22C162.395 206.927 162.662 206.703 162.968 206.55C163.275 206.397 163.615 206.32 163.988 206.32C164.355 206.32 164.692 206.4 164.998 206.56C165.312 206.713 165.578 206.937 165.798 207.23C166.025 207.517 166.198 207.87 166.318 208.29C166.445 208.703 166.508 209.17 166.508 209.69C166.508 210.217 166.445 210.693 166.318 211.12C166.198 211.54 166.025 211.9 165.798 212.2C165.578 212.493 165.312 212.72 164.998 212.88C164.692 213.04 164.355 213.12 163.988 213.12ZM163.988 212.39C164.235 212.39 164.462 212.327 164.668 212.2C164.875 212.073 165.048 211.893 165.188 211.66C165.335 211.42 165.448 211.137 165.528 210.81C165.608 210.477 165.648 210.103 165.648 209.69C165.648 209.283 165.608 208.917 165.528 208.59C165.448 208.263 165.335 207.987 165.188 207.76C165.048 207.533 164.875 207.36 164.668 207.24C164.462 207.113 164.235 207.05 163.988 207.05C163.735 207.05 163.505 207.113 163.298 207.24C163.098 207.36 162.925 207.533 162.778 207.76C162.638 207.987 162.528 208.263 162.448 208.59C162.368 208.917 162.328 209.283 162.328 209.69C162.328 210.103 162.368 210.477 162.448 210.81C162.528 211.137 162.638 211.42 162.778 211.66C162.925 211.893 163.098 212.073 163.298 212.2C163.505 212.327 163.735 212.39 163.988 212.39ZM169.334 206.44H173.344V207.14H170.164V209.36H172.854V210.06H170.164V213H169.334V206.44ZM177.17 212.28C177.17 212.027 177.247 211.823 177.4 211.67C177.56 211.51 177.754 211.43 177.98 211.43C178.207 211.43 178.397 211.51 178.55 211.67C178.71 211.823 178.79 212.027 178.79 212.28C178.79 212.533 178.71 212.737 178.55 212.89C178.397 213.043 178.207 213.12 177.98 213.12C177.754 213.12 177.56 213.043 177.4 212.89C177.247 212.737 177.17 212.533 177.17 212.28ZM184.167 212.28C184.167 212.027 184.243 211.823 184.397 211.67C184.557 211.51 184.75 211.43 184.977 211.43C185.203 211.43 185.393 211.51 185.547 211.67C185.707 211.823 185.787 212.027 185.787 212.28C185.787 212.533 185.707 212.737 185.547 212.89C185.393 213.043 185.203 213.12 184.977 213.12C184.75 213.12 184.557 213.043 184.397 212.89C184.243 212.737 184.167 212.533 184.167 212.28ZM191.163 212.28C191.163 212.027 191.239 211.823 191.393 211.67C191.553 211.51 191.746 211.43 191.973 211.43C192.199 211.43 192.389 211.51 192.543 211.67C192.703 211.823 192.783 212.027 192.783 212.28C192.783 212.533 192.703 212.737 192.543 212.89C192.389 213.043 192.199 213.12 191.973 213.12C191.746 213.12 191.553 213.043 191.393 212.89C191.239 212.737 191.163 212.533 191.163 212.28Z" fill="#1813AC"/>
<path d="M208.119 110.14H205.959V109.44H211.119V110.14H208.959V116H208.119V110.14ZM213.685 109.44H217.735V110.14H214.525V112.2H217.235V112.91H214.525V115.29H217.835V116H213.685V109.44ZM220.191 112.72C220.191 112.193 220.261 111.72 220.401 111.3C220.548 110.88 220.751 110.523 221.011 110.23C221.271 109.937 221.581 109.713 221.941 109.56C222.301 109.4 222.695 109.32 223.121 109.32C223.521 109.32 223.871 109.4 224.171 109.56C224.471 109.72 224.718 109.907 224.911 110.12L224.441 110.65C224.268 110.47 224.075 110.327 223.861 110.22C223.648 110.107 223.401 110.05 223.121 110.05C222.808 110.05 222.521 110.113 222.261 110.24C222.008 110.36 221.791 110.537 221.611 110.77C221.431 110.997 221.291 111.273 221.191 111.6C221.098 111.927 221.051 112.293 221.051 112.7C221.051 113.113 221.098 113.487 221.191 113.82C221.291 114.147 221.431 114.427 221.611 114.66C221.791 114.893 222.008 115.073 222.261 115.2C222.521 115.327 222.808 115.39 223.121 115.39C223.421 115.39 223.688 115.327 223.921 115.2C224.155 115.073 224.378 114.893 224.591 114.66L225.071 115.17C224.811 115.47 224.518 115.703 224.191 115.87C223.865 116.037 223.491 116.12 223.071 116.12C222.658 116.12 222.275 116.043 221.921 115.89C221.575 115.737 221.271 115.517 221.011 115.23C220.758 114.937 220.558 114.58 220.411 114.16C220.265 113.733 220.191 113.253 220.191 112.72ZM227.317 109.44H228.157V112.19H230.897V109.44H231.737V116H230.897V112.91H228.157V116H227.317V109.44ZM234.353 109.44H235.203L237.333 113.58L237.993 114.92H238.013C238 114.593 237.977 114.253 237.943 113.9C237.917 113.54 237.903 113.187 237.903 112.84V109.44H238.693V116H237.843L235.713 111.86L235.053 110.52H235.033C235.047 110.86 235.067 111.203 235.093 111.55C235.127 111.89 235.143 112.23 235.143 112.57V116H234.353V109.44ZM243.52 116.12C243.146 116.12 242.806 116.04 242.5 115.88C242.193 115.72 241.926 115.493 241.7 115.2C241.48 114.9 241.306 114.54 241.18 114.12C241.06 113.693 241 113.217 241 112.69C241 112.163 241.06 111.693 241.18 111.28C241.306 110.86 241.48 110.507 241.7 110.22C241.926 109.927 242.193 109.703 242.5 109.55C242.806 109.397 243.146 109.32 243.52 109.32C243.886 109.32 244.223 109.4 244.53 109.56C244.843 109.713 245.11 109.937 245.33 110.23C245.556 110.517 245.73 110.87 245.85 111.29C245.976 111.703 246.04 112.17 246.04 112.69C246.04 113.217 245.976 113.693 245.85 114.12C245.73 114.54 245.556 114.9 245.33 115.2C245.11 115.493 244.843 115.72 244.53 115.88C244.223 116.04 243.886 116.12 243.52 116.12ZM243.52 115.39C243.766 115.39 243.993 115.327 244.2 115.2C244.406 115.073 244.58 114.893 244.72 114.66C244.866 114.42 244.98 114.137 245.06 113.81C245.14 113.477 245.18 113.103 245.18 112.69C245.18 112.283 245.14 111.917 245.06 111.59C244.98 111.263 244.866 110.987 244.72 110.76C244.58 110.533 244.406 110.36 244.2 110.24C243.993 110.113 243.766 110.05 243.52 110.05C243.266 110.05 243.036 110.113 242.83 110.24C242.63 110.36 242.456 110.533 242.31 110.76C242.17 110.987 242.06 111.263 241.98 111.59C241.9 111.917 241.86 112.283 241.86 112.69C241.86 113.103 241.9 113.477 241.98 113.81C242.06 114.137 242.17 114.42 242.31 114.66C242.456 114.893 242.63 115.073 242.83 115.2C243.036 115.327 243.266 115.39 243.52 115.39ZM248.856 109.44H249.676V115.29H252.926V116H248.856V109.44ZM257.512 116.12C257.138 116.12 256.798 116.04 256.492 115.88C256.185 115.72 255.918 115.493 255.692 115.2C255.472 114.9 255.298 114.54 255.172 114.12C255.052 113.693 254.992 113.217 254.992 112.69C254.992 112.163 255.052 111.693 255.172 111.28C255.298 110.86 255.472 110.507 255.692 110.22C255.918 109.927 256.185 109.703 256.492 109.55C256.798 109.397 257.138 109.32 257.512 109.32C257.878 109.32 258.215 109.4 258.522 109.56C258.835 109.713 259.102 109.937 259.322 110.23C259.548 110.517 259.722 110.87 259.842 111.29C259.968 111.703 260.032 112.17 260.032 112.69C260.032 113.217 259.968 113.693 259.842 114.12C259.722 114.54 259.548 114.9 259.322 115.2C259.102 115.493 258.835 115.72 258.522 115.88C258.215 116.04 257.878 116.12 257.512 116.12ZM257.512 115.39C257.758 115.39 257.985 115.327 258.192 115.2C258.398 115.073 258.572 114.893 258.712 114.66C258.858 114.42 258.972 114.137 259.052 113.81C259.132 113.477 259.172 113.103 259.172 112.69C259.172 112.283 259.132 111.917 259.052 111.59C258.972 111.263 258.858 110.987 258.712 110.76C258.572 110.533 258.398 110.36 258.192 110.24C257.985 110.113 257.758 110.05 257.512 110.05C257.258 110.05 257.028 110.113 256.822 110.24C256.622 110.36 256.448 110.533 256.302 110.76C256.162 110.987 256.052 111.263 255.972 111.59C255.892 111.917 255.852 112.283 255.852 112.69C255.852 113.103 255.892 113.477 255.972 113.81C256.052 114.137 256.162 114.42 256.302 114.66C256.448 114.893 256.622 115.073 256.822 115.2C257.028 115.327 257.258 115.39 257.512 115.39ZM262.038 112.72C262.038 112.193 262.108 111.72 262.248 111.3C262.394 110.873 262.594 110.517 262.848 110.23C263.108 109.937 263.414 109.713 263.768 109.56C264.128 109.4 264.521 109.32 264.948 109.32C265.168 109.32 265.368 109.343 265.548 109.39C265.728 109.437 265.891 109.5 266.038 109.58C266.191 109.653 266.324 109.737 266.438 109.83C266.558 109.923 266.664 110.02 266.758 110.12L266.288 110.65C266.128 110.477 265.944 110.333 265.738 110.22C265.531 110.107 265.268 110.05 264.948 110.05C264.641 110.05 264.361 110.113 264.108 110.24C263.861 110.36 263.648 110.537 263.468 110.77C263.288 110.997 263.148 111.273 263.048 111.6C262.954 111.927 262.908 112.293 262.908 112.7C262.908 113.113 262.951 113.487 263.038 113.82C263.131 114.147 263.261 114.427 263.428 114.66C263.601 114.893 263.814 115.073 264.068 115.2C264.321 115.327 264.608 115.39 264.928 115.39C265.161 115.39 265.378 115.357 265.578 115.29C265.778 115.217 265.941 115.12 266.068 115V113.29H264.758V112.6H266.838V115.36C266.624 115.573 266.351 115.753 266.018 115.9C265.684 116.047 265.304 116.12 264.878 116.12C264.464 116.12 264.084 116.043 263.738 115.89C263.391 115.737 263.091 115.517 262.838 115.23C262.584 114.937 262.388 114.58 262.248 114.16C262.108 113.733 262.038 113.253 262.038 112.72ZM271.084 113.66L268.884 109.44H269.764L270.754 111.39C270.881 111.643 271.004 111.897 271.124 112.15C271.244 112.397 271.371 112.653 271.504 112.92H271.544C271.677 112.653 271.807 112.393 271.934 112.14C272.061 111.887 272.187 111.633 272.314 111.38L273.264 109.44H274.124L271.924 113.66V116H271.084V113.66ZM283.716 114.25C283.716 114.43 283.749 114.597 283.816 114.75C283.883 114.897 283.973 115.023 284.086 115.13C284.199 115.237 284.333 115.32 284.486 115.38C284.639 115.433 284.803 115.46 284.976 115.46C285.183 115.46 285.383 115.413 285.576 115.32C285.769 115.227 285.953 115.1 286.126 114.94C285.806 114.66 285.503 114.353 285.216 114.02C284.936 113.687 284.683 113.34 284.456 112.98C284.243 113.167 284.066 113.363 283.926 113.57C283.786 113.77 283.716 113.997 283.716 114.25ZM284.416 110.86C284.416 111.04 284.443 111.227 284.496 111.42C284.549 111.613 284.623 111.81 284.716 112.01C284.856 111.91 284.986 111.81 285.106 111.71C285.233 111.603 285.343 111.497 285.436 111.39C285.536 111.277 285.613 111.16 285.666 111.04C285.719 110.913 285.746 110.777 285.746 110.63C285.746 110.437 285.699 110.27 285.606 110.13C285.519 109.983 285.366 109.91 285.146 109.91C284.913 109.91 284.733 110 284.606 110.18C284.479 110.36 284.416 110.587 284.416 110.86ZM288.036 116.12C287.603 115.987 287.146 115.737 286.666 115.37C286.426 115.603 286.159 115.787 285.866 115.92C285.579 116.053 285.249 116.12 284.876 116.12C284.583 116.12 284.316 116.077 284.076 115.99C283.836 115.897 283.629 115.77 283.456 115.61C283.289 115.45 283.156 115.26 283.056 115.04C282.963 114.813 282.916 114.567 282.916 114.3C282.916 114.087 282.949 113.89 283.016 113.71C283.083 113.53 283.173 113.367 283.286 113.22C283.406 113.067 283.539 112.927 283.686 112.8C283.833 112.667 283.986 112.54 284.146 112.42C284.006 112.147 283.896 111.88 283.816 111.62C283.743 111.353 283.706 111.103 283.706 110.87C283.706 110.65 283.739 110.447 283.806 110.26C283.879 110.073 283.976 109.91 284.096 109.77C284.223 109.63 284.373 109.52 284.546 109.44C284.726 109.36 284.926 109.32 285.146 109.32C285.553 109.32 285.866 109.44 286.086 109.68C286.306 109.92 286.416 110.233 286.416 110.62C286.416 110.833 286.373 111.027 286.286 111.2C286.206 111.373 286.099 111.54 285.966 111.7C285.833 111.853 285.683 112 285.516 112.14C285.349 112.273 285.179 112.407 285.006 112.54C285.219 112.88 285.463 113.207 285.736 113.52C286.016 113.833 286.306 114.12 286.606 114.38C286.793 114.113 286.953 113.823 287.086 113.51C287.226 113.19 287.343 112.84 287.436 112.46H288.196C288.076 112.893 287.929 113.307 287.756 113.7C287.583 114.093 287.376 114.463 287.136 114.81C287.536 115.117 287.913 115.327 288.266 115.44L288.036 116.12ZM297.658 114.57C297.905 114.817 298.192 115.017 298.518 115.17C298.845 115.317 299.188 115.39 299.548 115.39C300.015 115.39 300.375 115.293 300.628 115.1C300.882 114.9 301.008 114.64 301.008 114.32C301.008 114.153 300.978 114.013 300.918 113.9C300.858 113.78 300.775 113.68 300.668 113.6C300.562 113.513 300.435 113.437 300.288 113.37C300.148 113.303 299.995 113.233 299.828 113.16L298.888 112.75C298.722 112.683 298.555 112.603 298.388 112.51C298.222 112.417 298.068 112.303 297.928 112.17C297.795 112.037 297.685 111.88 297.598 111.7C297.512 111.513 297.468 111.3 297.468 111.06C297.468 110.813 297.522 110.583 297.628 110.37C297.735 110.157 297.882 109.973 298.068 109.82C298.262 109.66 298.488 109.537 298.748 109.45C299.015 109.363 299.305 109.32 299.618 109.32C300.032 109.32 300.412 109.397 300.758 109.55C301.105 109.697 301.398 109.89 301.638 110.13L301.198 110.67C300.985 110.477 300.748 110.327 300.488 110.22C300.235 110.107 299.945 110.05 299.618 110.05C299.218 110.05 298.902 110.137 298.668 110.31C298.435 110.477 298.318 110.71 298.318 111.01C298.318 111.17 298.352 111.307 298.418 111.42C298.492 111.527 298.582 111.623 298.688 111.71C298.802 111.79 298.928 111.86 299.068 111.92C299.208 111.98 299.348 112.04 299.488 112.1L300.408 112.5C300.608 112.58 300.795 112.673 300.968 112.78C301.148 112.88 301.302 113 301.428 113.14C301.562 113.273 301.665 113.433 301.738 113.62C301.818 113.8 301.858 114.01 301.858 114.25C301.858 114.51 301.805 114.753 301.698 114.98C301.592 115.207 301.438 115.407 301.238 115.58C301.038 115.747 300.795 115.88 300.508 115.98C300.222 116.073 299.898 116.12 299.538 116.12C299.058 116.12 298.615 116.033 298.208 115.86C297.808 115.687 297.458 115.45 297.158 115.15L297.658 114.57ZM306.484 116.12C306.111 116.12 305.771 116.04 305.464 115.88C305.158 115.72 304.891 115.493 304.664 115.2C304.444 114.9 304.271 114.54 304.144 114.12C304.024 113.693 303.964 113.217 303.964 112.69C303.964 112.163 304.024 111.693 304.144 111.28C304.271 110.86 304.444 110.507 304.664 110.22C304.891 109.927 305.158 109.703 305.464 109.55C305.771 109.397 306.111 109.32 306.484 109.32C306.851 109.32 307.188 109.4 307.494 109.56C307.808 109.713 308.074 109.937 308.294 110.23C308.521 110.517 308.694 110.87 308.814 111.29C308.941 111.703 309.004 112.17 309.004 112.69C309.004 113.217 308.941 113.693 308.814 114.12C308.694 114.54 308.521 114.9 308.294 115.2C308.074 115.493 307.808 115.72 307.494 115.88C307.188 116.04 306.851 116.12 306.484 116.12ZM306.484 115.39C306.731 115.39 306.958 115.327 307.164 115.2C307.371 115.073 307.544 114.893 307.684 114.66C307.831 114.42 307.944 114.137 308.024 113.81C308.104 113.477 308.144 113.103 308.144 112.69C308.144 112.283 308.104 111.917 308.024 111.59C307.944 111.263 307.831 110.987 307.684 110.76C307.544 110.533 307.371 110.36 307.164 110.24C306.958 110.113 306.731 110.05 306.484 110.05C306.231 110.05 306.001 110.113 305.794 110.24C305.594 110.36 305.421 110.533 305.274 110.76C305.134 110.987 305.024 111.263 304.944 111.59C304.864 111.917 304.824 112.283 304.824 112.69C304.824 113.103 304.864 113.477 304.944 113.81C305.024 114.137 305.134 114.42 305.274 114.66C305.421 114.893 305.594 115.073 305.794 115.2C306.001 115.327 306.231 115.39 306.484 115.39ZM311.14 112.72C311.14 112.193 311.21 111.72 311.35 111.3C311.497 110.88 311.7 110.523 311.96 110.23C312.22 109.937 312.53 109.713 312.89 109.56C313.25 109.4 313.644 109.32 314.07 109.32C314.47 109.32 314.82 109.4 315.12 109.56C315.42 109.72 315.667 109.907 315.86 110.12L315.39 110.65C315.217 110.47 315.024 110.327 314.81 110.22C314.597 110.107 314.35 110.05 314.07 110.05C313.757 110.05 313.47 110.113 313.21 110.24C312.957 110.36 312.74 110.537 312.56 110.77C312.38 110.997 312.24 111.273 312.14 111.6C312.047 111.927 312 112.293 312 112.7C312 113.113 312.047 113.487 312.14 113.82C312.24 114.147 312.38 114.427 312.56 114.66C312.74 114.893 312.957 115.073 313.21 115.2C313.47 115.327 313.757 115.39 314.07 115.39C314.37 115.39 314.637 115.327 314.87 115.2C315.104 115.073 315.327 114.893 315.54 114.66L316.02 115.17C315.76 115.47 315.467 115.703 315.14 115.87C314.814 116.037 314.44 116.12 314.02 116.12C313.607 116.12 313.224 116.043 312.87 115.89C312.524 115.737 312.22 115.517 311.96 115.23C311.707 114.937 311.507 114.58 311.36 114.16C311.214 113.733 311.14 113.253 311.14 112.72ZM318.427 115.29H320.057V110.14H318.427V109.44H322.527V110.14H320.897V115.29H322.527V116H318.427V115.29ZM325.623 109.44H329.673V110.14H326.463V112.2H329.173V112.91H326.463V115.29H329.773V116H325.623V109.44ZM334.049 110.14H331.889V109.44H337.049V110.14H334.889V116H334.049V110.14ZM341.045 113.66L338.845 109.44H339.725L340.715 111.39C340.842 111.643 340.965 111.897 341.085 112.15C341.205 112.397 341.332 112.653 341.465 112.92H341.505C341.638 112.653 341.768 112.393 341.895 112.14C342.022 111.887 342.148 111.633 342.275 111.38L343.225 109.44H344.085L341.885 113.66V116H341.045V113.66Z" fill="#F03E4E"/>
<path fill-rule="evenodd" clip-rule="evenodd" d="M320.88 168.363C324.198 164.468 326.444 159.694 326.069 154.345C324.988 138.932 303.533 142.323 299.36 150.102C295.186 157.88 295.682 177.612 301.076 179.002C303.227 179.557 307.809 178.199 312.473 175.388L309.546 196.097H326.83L320.88 168.363Z" fill="#FFD1A6"/>
<path fill-rule="evenodd" clip-rule="evenodd" d="M333.605 149.214C334.163 148.661 334.468 147.871 334.731 147.121C335.005 146.342 335.27 145.555 335.452 144.744C335.815 143.125 335.818 141.262 334.663 140.004C333.736 138.995 332.345 138.543 331.062 138.445C330.207 138.379 329.329 138.499 328.509 138.768C327.696 139.035 326.995 139.568 326.207 139.899C326.177 138.153 325.878 136.327 324.992 134.836C324.14 133.402 322.781 132.597 321.234 132.384C319.645 132.166 318.077 132.538 316.655 133.306C316.299 133.499 315.947 133.701 315.609 133.929C315.327 134.12 315.033 134.35 314.701 134.428C314.332 134.515 314.149 134.301 313.908 134.032C313.627 133.716 313.309 133.437 312.974 133.19C311.489 132.099 309.54 131.65 307.82 132.304C307.028 132.606 306.257 133.118 305.719 133.823C305.24 134.452 304.898 135.449 304.236 135.887C303.956 136.073 303.757 135.827 303.502 135.645C303.118 135.371 302.752 135.069 302.363 134.803C301.817 134.429 301.226 134.149 300.593 134.003C299.667 133.789 298.387 133.839 298.122 135.052C298.022 135.508 298.099 135.996 298.131 136.455C298.175 137.085 298.221 137.716 298.276 138.345C298.317 138.823 298.37 139.285 298.46 139.755C298.508 140.005 298.659 140.471 298.551 140.722C298.417 141.035 297.798 140.857 297.534 140.868C297.012 140.89 296.487 140.981 296.004 141.204C295.63 141.377 295.237 141.632 295.079 142.061C294.982 142.324 295.007 142.595 295.053 142.866C295.108 143.191 295.045 143.364 295.004 143.692C294.303 143.347 291.872 142.579 291.566 143.836C291.464 144.255 291.696 144.728 291.873 145.081C292.183 145.7 292.59 146.266 293.006 146.806C293.873 147.932 294.909 148.903 296.023 149.733C294.718 150.314 294.377 152.026 295.507 153.046C296.006 153.496 296.677 153.596 297.307 153.567C297.537 153.557 297.87 153.468 298.051 153.508C298.148 153.53 298.253 153.613 298.388 153.622C299.277 153.683 300.279 153.469 301.148 153.272C302.696 152.92 304.161 152.187 305.357 151.07C305.664 150.784 305.918 150.619 306.331 150.623C306.693 150.627 307.048 150.726 307.409 150.735C308.366 150.76 309.229 150.292 310.118 149.981C310.172 151.181 310.514 152.503 311.005 153.583C311.406 154.464 312.242 154.592 313.063 154.669C315.691 154.916 318.328 154.64 320.959 154.644C318.412 155.22 315.78 155.457 313.256 156.134C312.115 156.441 312.986 157.21 313.474 157.743C314.278 158.62 314.875 159.708 315.289 160.854C316.535 159.23 318.737 158.16 320.688 158.659C322.844 159.21 324.362 162.125 322.983 164.221C322.183 165.438 320.738 165.907 319.535 166.43C320.473 167.405 320.7 168.846 321.265 170.059C321.544 170.658 321.934 171.334 322.557 171.543C322.788 171.62 323.058 171.627 323.24 171.814C323.465 172.047 323.518 172.307 323.806 172.507C324.953 173.304 326.746 173.243 327.763 172.202C328.682 171.26 328.443 169.771 327.675 168.816C328.898 168.306 331.125 167.651 330.639 165.746C333.289 165.57 339.722 161.273 336.166 158.133C338.117 157.03 339.91 154.334 338.657 151.958C337.692 150.129 335.447 149.311 333.605 149.214Z" fill="#191847"/>
<path fill-rule="evenodd" clip-rule="evenodd" d="M358.07 286.12H302.432L295.142 375.424H377.964L358.07 286.12Z" fill="#C5CFD6"/>
<path fill-rule="evenodd" clip-rule="evenodd" d="M358.07 286.12H340.959L330.717 375.424H377.964L358.07 286.12Z" fill="black" fill-opacity="0.1"/>
<path fill-rule="evenodd" clip-rule="evenodd" d="M239.001 270.821C233.069 267.259 223.116 271.835 223.123 276.93C223.143 292.172 237.054 364.01 237.78 368.551C238.506 373.092 246.287 374.292 246.74 368.566C247.461 359.455 248.8 327.915 247.46 313.317C246.907 307.291 246.311 301.552 245.724 296.432C253.024 309.613 264.313 328.486 279.591 353.05L287.885 349.261C281.372 327.802 276.031 312.653 271.863 303.813C264.726 288.677 258.034 275.715 255.217 271.149C250.787 263.967 243.075 266.473 239.001 270.821Z" fill="#FFD1A6"/>
<path fill-rule="evenodd" clip-rule="evenodd" d="M287.292 337.344L258.824 269.907C252.005 258.937 232.884 272.139 235.21 278.502C240.49 292.947 267.343 339.712 268.916 344.016L287.292 337.344Z" fill="#E43142"/>
<path fill-rule="evenodd" clip-rule="evenodd" d="M288.872 345.007C290.646 346.467 291.799 347.659 292.333 348.584C292.982 349.709 293.743 351.458 294.614 353.832C293.309 354.586 281.583 361.356 259.436 374.142C256.777 371.648 256.363 369.712 258.193 368.334C260.023 366.956 261.534 365.793 262.725 364.847L274.867 348.118C275.1 347.796 275.551 347.725 275.872 347.958C275.878 347.962 275.883 347.966 275.889 347.971L278.412 349.913C280.726 349.711 282.453 349.281 283.593 348.623C284.519 348.088 285.582 346.976 286.783 345.286L286.783 345.285C287.243 344.637 288.142 344.484 288.791 344.945C288.819 344.965 288.846 344.986 288.872 345.007Z" fill="#E4E4E4"/>
<path fill-rule="evenodd" clip-rule="evenodd" d="M248.563 364.91C249.369 367.061 249.771 368.67 249.771 369.738C249.771 371.037 249.555 372.932 249.122 375.423C247.616 375.423 234.076 375.423 208.502 375.423C207.447 371.934 208.056 370.05 210.33 369.772C212.605 369.493 214.494 369.242 215.998 369.018L234.878 360.601C235.241 360.439 235.667 360.602 235.829 360.966C235.832 360.972 235.834 360.978 235.837 360.984L237.051 363.928C239.156 364.911 240.867 365.402 242.183 365.402C243.253 365.402 244.729 364.97 246.614 364.106L246.614 364.106C247.337 363.774 248.192 364.092 248.523 364.815C248.538 364.846 248.551 364.878 248.563 364.91Z" fill="#E4E4E4"/>
<path fill-rule="evenodd" clip-rule="evenodd" d="M221.127 282.111C221.127 301.244 230.214 345.874 230.22 350.087L249.77 350.102C246.908 310.279 245.893 290.153 246.726 289.724C247.974 289.08 297.896 294.708 312.868 294.708C334.458 294.708 343.39 281.093 344.114 255.872H301.345C292.637 256.804 247.214 265.966 230.345 269.115C223.123 270.464 221.127 276.84 221.127 282.111Z" fill="#F03E4E"/>
<path fill-rule="evenodd" clip-rule="evenodd" d="M294.683 211.004L269.685 197.313C265.528 192.377 261.432 188.543 257.398 185.812C256.165 185.297 254.009 184.986 256.025 188.564C258.041 192.143 260.001 195.997 258.974 197.1C257.947 198.202 255.386 196.662 254.16 198.494C253.343 199.715 257.719 201.644 267.288 204.281L285.451 220.912L294.683 211.004ZM255.532 222.556L244.551 216.524C243.011 210.661 241.169 207.712 239.026 207.675C237.38 206.909 240.247 214.317 237.126 213.674C234.006 213.032 226.39 207.368 225.078 208.518C223.136 210.219 224.867 215.444 226.907 218.043C230.719 222.9 233.875 224.561 241.676 226.736C245.755 227.874 250.165 230.153 254.906 233.575L255.532 222.556Z" fill="#FFD1A6"/>
<path fill-rule="evenodd" clip-rule="evenodd" d="M306.857 207.955C298.101 207.863 286.425 206.013 273.967 198.105L269.074 209.016C277.667 217.544 289.751 224.551 300.316 224.255C308.642 224.021 312.897 213.95 306.857 207.955Z" fill="#2026A2"/>
<path fill-rule="evenodd" clip-rule="evenodd" d="M295.067 225.452C285.772 227.771 270.184 225.037 248.304 217.251C242.877 228.479 240.368 236.483 240.778 241.265C259.548 251.069 275.635 255.441 288.889 255.729C288.468 263.594 289.425 271.077 292.64 277.914C299.251 291.971 337.961 278.953 350.977 281.515C359.127 255.045 343.368 244.288 343.355 227.35C343.341 208.802 328.448 180.252 326.257 180.252H306.274C305.171 194.418 299.622 210.029 295.067 225.452Z" fill="#1F28CF"/>
</svg>
