<svg width="177" height="186" viewBox="0 0 177 186" fill="none" xmlns="http://www.w3.org/2000/svg">
<path fill-rule="evenodd" clip-rule="evenodd" d="M112.554 22.9952C126.259 26.3973 129.191 46.1976 136.517 59.3628C143.979 72.7717 158.369 83.7671 155.726 100.576C153.08 117.416 135.396 125.943 124.113 138.273C114.655 148.609 107.267 162.534 95.1124 166.813C83.0241 171.07 70.8343 166.661 60.3774 160.714C50.9032 155.326 44.6391 145.637 39.4375 135.149C34.3931 124.979 32.1049 113.721 31.0802 101.644C29.7834 86.3606 23.6509 68.8675 32.7228 56.0129C41.7802 43.1788 58.9191 48.8826 72.1882 43.3946C86.2782 37.5671 98.8113 19.5839 112.554 22.9952Z" fill="#FFEBD3"/>
<g clip-path="url(#clip0)">
<path d="M86.5 91.7344C99.4442 91.7344 109.938 81.2411 109.938 68.2969C109.938 55.3527 99.4442 44.8594 86.5 44.8594C73.5558 44.8594 63.0625 55.3527 63.0625 68.2969C63.0625 81.2411 73.5558 91.7344 86.5 91.7344Z" fill="#FFE069"/>
<path d="M77.9844 64.3906V61.4609C77.9844 50.5234 95.0156 50.8164 95.0156 61.4609V64.3906C95.0156 75.3867 77.9844 75.0742 77.9844 64.3906Z" fill="#F03E4E"/>
<path d="M101.695 86.1289C97.4555 89.7393 92.0687 91.7221 86.5 91.7221C80.9313 91.7221 75.5445 89.7393 71.3047 86.1289C71.8256 84.2557 72.4783 82.4217 73.2578 80.6406C74.4926 78.2103 76.376 76.1692 78.6995 74.7435C81.023 73.3178 83.6958 72.5631 86.4219 72.5631C89.1479 72.5631 91.8207 73.3178 94.1442 74.7435C96.4677 76.1692 98.3512 78.2103 99.5859 80.6406C100.419 82.4176 101.124 84.2516 101.695 86.1289Z" fill="#1813AC"/>
<path d="M73.3354 80.6406C72.5559 82.4218 71.9033 84.2558 71.3823 86.1289C68.354 83.546 66.0333 80.2344 64.6392 76.5063C63.245 72.7782 62.8232 68.7565 63.4136 64.8203C63.8949 67.9965 65.024 71.0398 66.7308 73.7613C68.4376 76.4828 70.6857 78.8244 73.3354 80.6406Z" fill="#F03E4E"/>
<path d="M101.695 86.1289C101.174 84.2558 100.522 82.4218 99.7422 80.6406C102.406 78.832 104.669 76.4939 106.39 73.772C108.11 71.05 109.252 68.0028 109.742 64.8203C110.323 68.7633 109.889 72.7893 108.481 76.5179C107.073 80.2464 104.738 83.5543 101.695 86.1289Z" fill="#F03E4E"/>
<path d="M101.695 86.1288C97.4555 89.7392 92.0687 91.7221 86.5 91.7221C80.9313 91.7221 75.5445 89.7392 71.3047 86.1288C71.8256 84.2557 72.4783 82.4217 73.2578 80.6406C77.1416 83.2771 81.7277 84.6867 86.4219 84.6867C91.1161 84.6867 95.7021 83.2771 99.5859 80.6406C100.419 82.4175 101.124 84.2516 101.695 86.1288Z" fill="#F9ECF0"/>
<path d="M49.3906 158.141C62.3348 158.141 72.8281 147.647 72.8281 134.703C72.8281 121.759 62.3348 111.266 49.3906 111.266C36.4465 111.266 25.9531 121.759 25.9531 134.703C25.9531 147.647 36.4465 158.141 49.3906 158.141Z" fill="#1813AC"/>
<path d="M40.875 130.797V127.867C40.875 116.93 57.9063 117.223 57.9063 127.867V130.797C57.9063 141.793 40.875 141.48 40.875 130.797Z" fill="#F9ECF0"/>
<path d="M64.5859 152.535C60.3462 156.146 54.9594 158.128 49.3906 158.128C43.8219 158.128 38.4351 156.146 34.1953 152.535C34.7163 150.662 35.3689 148.828 36.1484 147.047C37.3832 144.616 39.2667 142.575 41.5902 141.15C43.9137 139.724 46.5865 138.969 49.3125 138.969C52.0385 138.969 54.7114 139.724 57.0348 141.15C59.3583 142.575 61.2418 144.616 62.4766 147.047C63.3093 148.824 64.0142 150.658 64.5859 152.535Z" fill="#F03E4E"/>
<path d="M36.2271 147.047C35.4476 148.828 34.7949 150.662 34.2739 152.535C31.2315 149.961 28.8959 146.653 27.4879 142.924C26.0799 139.196 25.6459 135.17 26.2271 131.227C26.7177 134.409 27.8589 137.456 29.5794 140.178C31.2999 142.9 33.5629 145.238 36.2271 147.047Z" fill="#FFE069"/>
<path d="M64.5859 152.535C64.065 150.662 63.4123 148.828 62.6328 147.047C65.297 145.238 67.56 142.9 69.2805 140.178C71.001 137.456 72.1422 134.409 72.6328 131.227C73.2139 135.17 72.78 139.196 71.372 142.924C69.9639 146.653 67.6283 149.961 64.5859 152.535Z" fill="#FFE069"/>
<path d="M64.5859 152.535C60.3462 156.146 54.9594 158.128 49.3906 158.128C43.8219 158.128 38.4351 156.146 34.1953 152.535C34.7163 150.662 35.3689 148.828 36.1484 147.047C40.0323 149.683 44.6183 151.093 49.3125 151.093C54.0067 151.093 58.5928 149.683 62.4766 147.047C63.3093 148.824 64.0142 150.658 64.5859 152.535Z" fill="#A09DFF"/>
<path d="M123.609 158.141C136.554 158.141 147.047 147.647 147.047 134.703C147.047 121.759 136.554 111.266 123.609 111.266C110.665 111.266 100.172 121.759 100.172 134.703C100.172 147.647 110.665 158.141 123.609 158.141Z" fill="#F03E4E"/>
<path d="M115.094 130.797V127.867C115.094 116.93 132.125 117.223 132.125 127.867V130.797C132.125 141.793 115.094 141.48 115.094 130.797Z" fill="#FFE069"/>
<path d="M138.805 152.535C134.565 156.146 129.178 158.128 123.609 158.128C118.041 158.128 112.654 156.146 108.414 152.535C108.935 150.662 109.588 148.828 110.367 147.047C111.602 144.616 113.485 142.575 115.809 141.15C118.132 139.724 120.805 138.969 123.531 138.969C126.257 138.969 128.93 139.724 131.254 141.15C133.577 142.575 135.461 144.616 136.695 147.047C137.528 148.824 138.233 150.658 138.805 152.535Z" fill="#F9ECF0"/>
<path d="M110.445 147.047C109.665 148.828 109.013 150.662 108.492 152.535C105.463 149.952 103.143 146.641 101.749 142.913C100.354 139.184 99.9326 135.163 100.523 131.227C101.004 134.403 102.133 137.446 103.84 140.168C105.547 142.889 107.795 145.231 110.445 147.047Z" fill="#1813AC"/>
<path d="M138.805 152.535C138.284 150.662 137.631 148.828 136.852 147.047C139.516 145.238 141.779 142.9 143.499 140.178C145.22 137.456 146.361 134.409 146.852 131.227C147.433 135.17 146.999 139.196 145.591 142.924C144.183 146.653 141.847 149.961 138.805 152.535Z" fill="#1813AC"/>
<path d="M138.805 152.535C134.565 156.146 129.178 158.128 123.609 158.128C118.041 158.128 112.654 156.146 108.414 152.535C108.935 150.662 109.588 148.828 110.367 147.047C114.251 149.683 118.837 151.093 123.531 151.093C128.225 151.093 132.811 149.683 136.695 147.047C137.528 148.824 138.233 150.658 138.805 152.535Z" fill="#A09DFF"/>
<path d="M103.766 108.063L109.625 104.625L103.766 94.4687L97.9062 97.9062C96.2658 96.5125 94.3865 95.4273 92.3594 94.7031V87.8281H80.6406V94.7031C78.6135 95.4273 76.7342 96.5125 75.0937 97.9062L69.1367 94.4687L63.2773 104.625L69.2344 108.063C68.8144 110.177 68.8144 112.354 69.2344 114.469L63.2773 117.906L69.1367 128.062L75.0937 124.625C76.7342 126.019 78.6135 127.104 80.6406 127.828V134.703H92.3594V127.828C94.3865 127.104 96.2658 126.019 97.9062 124.625L103.766 128.062L109.625 117.906L103.766 114.469C104.186 112.354 104.186 110.177 103.766 108.063Z" fill="#A09DFF"/>
<path d="M104.215 114.723L109.723 117.906L103.863 128.062L98.0039 124.625C96.3342 126.029 94.421 127.115 92.3594 127.828V134.703H80.6406V127.828C78.6135 127.104 76.7342 126.019 75.0937 124.625L69.1367 128.062L63.2773 117.906L68.7852 114.723C70.5832 117.829 73.1664 120.408 76.2757 122.2C79.3849 123.993 82.9109 124.937 86.5 124.937C90.0891 124.937 93.6151 123.993 96.7243 122.2C99.8336 120.408 102.417 117.829 104.215 114.723Z" fill="#1813AC"/>
<path d="M86.5 117.125C89.736 117.125 92.3594 114.502 92.3594 111.266C92.3594 108.03 89.736 105.406 86.5 105.406C83.264 105.406 80.6406 108.03 80.6406 111.266C80.6406 114.502 83.264 117.125 86.5 117.125Z" fill="#F9ECF0"/>
<path d="M123.609 109.312C117.95 109.305 112.451 111.189 107.984 114.664C104.606 112.711 106.5 114.469 105.856 109.078C113.668 104.527 113.395 107.125 105.524 93.4531C105.394 93.2309 105.222 93.0365 105.018 92.8808C104.813 92.7252 104.58 92.6114 104.332 92.5461C104.083 92.4808 103.824 92.4652 103.569 92.5002C103.315 92.5352 103.07 92.6201 102.848 92.75L98.0821 95.6406C93.922 92.4766 94.3126 94.3711 94.3126 92.418C121.91 83.5117 115.035 42.9062 86.5001 42.9062C63.0626 42.9062 52.1251 72.3594 70.0352 87.6328C72.5779 89.7794 75.5178 91.4053 78.6876 92.418C78.6876 94.3711 79.0977 92.418 74.9181 95.5625L70.1134 92.7891C69.8916 92.6591 69.6464 92.5742 69.3918 92.5392C69.1371 92.5042 68.8781 92.5199 68.6295 92.5852C68.3809 92.6505 68.1477 92.7642 67.9432 92.9199C67.7386 93.0755 67.5668 93.27 67.4376 93.4922L61.5782 103.648C61.3236 104.097 61.2567 104.628 61.392 105.126C61.5274 105.623 61.8541 106.047 62.3009 106.305L67.1056 109.078C66.4415 114.664 68.4142 112.691 64.9767 114.664C59.7391 110.577 53.1082 108.706 46.5067 109.451C39.9051 110.197 33.8588 113.5 29.6648 118.653C25.4709 123.805 23.4634 130.396 24.073 137.011C24.6827 143.627 27.8609 149.74 32.9259 154.039C55.2501 170.777 80.172 149.742 73.7657 127.633C75.8946 126.402 73.7657 126.988 78.6876 129.156V134.703C78.6876 135.221 78.8934 135.718 79.2596 136.084C79.6259 136.45 80.1227 136.656 80.6407 136.656H92.3595C92.8775 136.656 93.3743 136.45 93.7405 136.084C94.1068 135.718 94.3126 135.221 94.3126 134.703V129.156C99.0977 127.066 97.1251 126.422 99.2345 127.633C92.3595 151.344 119.84 170.23 140.074 154.039C158.024 138.609 147.047 109.312 123.609 109.312ZM80.6407 85.875C80.211 85.875 78.6876 86.0312 78.6876 88.2969C76.8659 87.597 75.1554 86.6364 73.6095 85.4453L74.3321 83.2773C75.1863 80.7263 76.8207 78.5083 79.0042 76.9368C81.1877 75.3653 83.8099 74.5198 86.5001 74.5198C89.1903 74.5198 91.8125 75.3653 93.996 76.9368C96.1795 78.5083 97.8139 80.7263 98.6681 83.2773L99.3907 85.4453C97.8447 86.6362 96.1342 87.5967 94.3126 88.2969C94.3126 86.0508 92.8282 85.875 92.3595 85.875H80.6407ZM79.9376 64.0391V61.9102C79.9376 60.1697 80.629 58.5005 81.8597 57.2698C83.0904 56.0391 84.7596 55.3477 86.5001 55.3477C88.2406 55.3477 89.9098 56.0391 91.1405 57.2698C92.3712 58.5005 93.0626 60.1697 93.0626 61.9102V64.0391C93.0626 65.7795 92.3712 67.4487 91.1405 68.6795C89.9098 69.9102 88.2406 70.6016 86.5001 70.6016C84.7596 70.6016 83.0904 69.9102 81.8597 68.6795C80.629 67.4487 79.9376 65.7795 79.9376 64.0391ZM86.5001 46.8125C90.6386 46.8157 94.6882 48.0142 98.1619 50.2639C101.636 52.5135 104.386 55.7186 106.081 59.4938C107.777 63.269 108.346 67.4536 107.721 71.5446C107.095 75.6356 105.301 79.4588 102.555 82.5547C101.851 80.2267 100.647 78.0804 99.0276 76.2656C97.4084 74.4507 95.4127 73.011 93.1798 72.0469C97.086 68.8242 96.9688 65.2109 96.9688 61.9102C96.9688 59.1337 95.8659 56.4709 93.9026 54.5076C91.9393 52.5444 89.2766 51.4414 86.5001 51.4414C83.7236 51.4414 81.0608 52.5444 79.0976 54.5076C77.1343 56.4709 76.0313 59.1337 76.0313 61.9102C76.0313 65.4258 76.0313 68.8438 79.8204 72.0469C77.5875 73.011 75.5918 74.4507 73.9726 76.2656C72.3534 78.0804 71.1497 80.2267 70.4454 82.5547C67.6989 79.4588 65.905 75.6356 65.2794 71.5446C64.6538 67.4536 65.2231 63.269 66.9188 59.4938C68.6146 55.7186 71.3646 52.5135 74.8383 50.2639C78.312 48.0142 82.3615 46.8157 86.5001 46.8125ZM42.8282 130.445V128.316C42.8282 127.455 42.998 126.601 43.3278 125.805C43.6576 125.009 44.1409 124.285 44.7503 123.676C45.3597 123.067 46.0832 122.583 46.8794 122.253C47.6756 121.924 48.5289 121.754 49.3907 121.754C50.2525 121.754 51.1059 121.924 51.9021 122.253C52.6983 122.583 53.4217 123.067 54.0311 123.676C54.6405 124.285 55.1239 125.009 55.4537 125.805C55.7835 126.601 55.9532 127.455 55.9532 128.316V130.445C55.9532 132.186 55.2618 133.855 54.0311 135.086C52.8004 136.316 51.1312 137.008 49.3907 137.008C47.6502 137.008 45.981 136.316 44.7503 135.086C43.5196 133.855 42.8282 132.186 42.8282 130.445ZM62.0079 152.086C58.3394 154.748 53.9231 156.181 49.3907 156.181C44.8583 156.181 40.442 154.748 36.7735 152.086C36.4024 151.812 36.3829 152.086 37.2227 149.684C38.077 147.133 39.7113 144.915 41.8948 143.343C44.0783 141.772 46.7005 140.926 49.3907 140.926C52.0809 140.926 54.7031 141.772 56.8866 143.343C59.0701 144.915 60.7045 147.133 61.5587 149.684C62.379 152.164 62.4181 151.793 62.0079 152.086ZM65.4454 148.961C64.7435 146.632 63.5407 144.484 61.9212 142.669C60.3017 140.854 58.3048 139.415 56.0704 138.453C59.9767 135.23 59.8595 131.617 59.8595 128.316C59.8595 125.54 58.7565 122.877 56.7932 120.914C54.83 118.951 52.1672 117.848 49.3907 117.848C46.6142 117.848 43.9515 118.951 41.9882 120.914C40.0249 122.877 38.922 125.54 38.922 128.316C38.922 131.832 38.922 135.25 42.711 138.453C40.4759 139.414 38.4784 140.852 36.8587 142.668C35.2391 144.483 34.0367 146.631 33.336 148.961C29.8628 145.034 27.9451 139.973 27.9441 134.731C27.9432 129.488 29.859 124.427 33.3308 120.499C36.8026 116.571 41.5908 114.048 46.7935 113.405C51.9963 112.762 57.2546 114.043 61.5782 117.008C60.8946 118.316 61.0509 117.965 67.4376 129.039C67.5727 129.277 67.7562 129.483 67.9761 129.646C68.1961 129.808 68.4477 129.922 68.7147 129.981C68.9816 130.04 69.2579 130.042 69.5258 129.988C69.7937 129.933 70.0471 129.823 70.2696 129.664C71.0804 133.031 71.0652 136.544 70.2252 139.904C69.3852 143.264 67.7453 146.371 65.4454 148.961ZM96.6954 123.141C92.7892 126.441 90.4649 125.504 90.4649 127.828V132.75H82.5938C82.5938 128.395 83.0235 126.598 81.2852 125.973C76.5001 124.293 76.1095 121.773 74.1173 122.926L69.8399 125.387L65.9337 118.629C69.7227 116.441 71.4806 115.914 71.1485 114.117C69.6446 105.973 74.5665 108.883 65.9337 103.902L69.8399 97.1445L74.1173 99.5469C76.1681 100.719 76.3829 98.2383 81.2852 96.5C82.8868 95.9336 82.5938 94.9375 82.5938 89.7227H90.4063V94.6445C90.4063 96.9688 92.7892 96.0312 96.6368 99.332C97.9259 100.445 98.5899 99.6836 103.16 97.0859L107.066 103.844C100.016 107.965 102.125 106.207 102.125 111.266C102.125 116.324 100.035 114.566 107.066 118.629L103.16 125.387C99.3712 123.219 98.0431 121.949 96.6368 123.141H96.6954ZM117.106 130.445V128.316C117.106 126.576 117.797 124.907 119.028 123.676C120.258 122.445 121.928 121.754 123.668 121.754C125.409 121.754 127.078 122.445 128.308 123.676C129.539 124.907 130.231 126.576 130.231 128.316V130.445C130.231 132.186 129.539 133.855 128.308 135.086C127.078 136.316 125.409 137.008 123.668 137.008C121.928 137.008 120.258 136.316 119.028 135.086C117.797 133.855 117.106 132.186 117.106 130.445ZM136.227 152.086C132.558 154.748 128.142 156.181 123.609 156.181C119.077 156.181 114.661 154.748 110.992 152.086C110.621 151.812 110.602 152.086 111.441 149.684C112.296 147.133 113.93 144.915 116.114 143.343C118.297 141.772 120.919 140.926 123.609 140.926C126.3 140.926 128.922 141.772 131.105 143.343C133.289 144.915 134.923 147.133 135.777 149.684C136.598 152.164 136.637 151.793 136.227 152.086ZM139.664 148.961C138.962 146.632 137.759 144.484 136.14 142.669C134.52 140.854 132.524 139.415 130.289 138.453C134.195 135.23 134.078 131.617 134.078 128.316C134.078 125.54 132.975 122.877 131.012 120.914C129.049 118.951 126.386 117.848 123.609 117.848C120.833 117.848 118.17 118.951 116.207 120.914C114.244 122.877 113.141 125.54 113.141 128.316C113.141 131.832 113.141 135.25 116.93 138.453C114.695 139.414 112.697 140.852 111.077 142.668C109.458 144.483 108.255 146.631 107.555 148.961C105.255 146.371 103.615 143.264 102.775 139.904C101.935 136.544 101.92 133.031 102.731 129.664C102.953 129.823 103.207 129.933 103.474 129.988C103.742 130.042 104.019 130.04 104.286 129.981C104.552 129.922 104.804 129.808 105.024 129.646C105.244 129.483 105.428 129.277 105.563 129.039C112.086 117.73 112.106 118.297 111.422 117.008C115.746 114.043 121.004 112.762 126.207 113.405C131.409 114.048 136.198 116.571 139.669 120.499C143.141 124.427 145.057 129.488 145.056 134.731C145.055 139.973 143.137 145.034 139.664 148.961Z" fill="black"/>
<path d="M86.5 103.453C84.9548 103.453 83.4444 103.911 82.1596 104.77C80.8749 105.628 79.8735 106.848 79.2822 108.276C78.6909 109.703 78.5362 111.274 78.8376 112.79C79.1391 114.305 79.8831 115.697 80.9757 116.79C82.0683 117.882 83.4604 118.627 84.9759 118.928C86.4913 119.229 88.0622 119.075 89.4897 118.483C90.9173 117.892 92.1374 116.891 92.9959 115.606C93.8543 114.321 94.3125 112.811 94.3125 111.266C94.3125 109.194 93.4894 107.206 92.0243 105.741C90.5591 104.276 88.572 103.453 86.5 103.453ZM86.5 115.172C85.7274 115.172 84.9722 114.943 84.3298 114.514C83.6874 114.084 83.1868 113.474 82.8911 112.76C82.5954 112.047 82.5181 111.261 82.6688 110.504C82.8195 109.746 83.1916 109.05 83.7379 108.503C84.2842 107.957 84.9802 107.585 85.7379 107.434C86.4957 107.284 87.2811 107.361 87.9949 107.657C88.7086 107.952 89.3187 108.453 89.7479 109.095C90.1772 109.738 90.4063 110.493 90.4063 111.266C90.4063 112.302 89.9947 113.295 89.2621 114.028C88.5296 114.76 87.536 115.172 86.5 115.172Z" fill="black"/>
</g>
<defs>
<clipPath id="clip0">
<rect width="125" height="125" fill="white" transform="translate(24 39)"/>
</clipPath>
</defs>
</svg>
