<svg width="205" height="201" viewBox="0 0 205 201" fill="none" xmlns="http://www.w3.org/2000/svg">
<path fill-rule="evenodd" clip-rule="evenodd" d="M162.504 150.918C153.204 164.473 141.854 178.962 125.663 181.863C109.879 184.692 95.7786 173.077 81.6885 165.4C70.0173 159.042 60.3494 150.893 51.1725 141.279C40.185 129.768 25.6083 119.795 23.157 104.081C20.5594 87.4281 25.2311 68.021 38.0382 57.0796C50.4803 46.4502 69.5786 54.4221 85.5411 50.785C99.7313 47.5517 112.129 32.2186 125.86 37.0692C139.599 41.9224 140.059 61.3427 148.681 73.0893C157.61 85.2552 174.468 92.0414 177.106 106.893C179.879 122.506 171.471 137.852 162.504 150.918Z" fill="#F9ECF0"/>
<g clip-path="url(#clip0)">
<path d="M59.5 66.0625C57.9584 66.0625 56.48 66.6749 55.3899 67.7649C54.2999 68.855 53.6875 70.3334 53.6875 71.875V143.562H158.312V71.875C158.312 70.3334 157.7 68.855 156.61 67.7649C155.52 66.6749 154.042 66.0625 152.5 66.0625H59.5Z" fill="#FFEBD3"/>
<path d="M150.562 73.8125V135.812H61.4375V73.8125H150.562Z" fill="#F9ECF0"/>
<path d="M150.562 73.8125V77.6875H61.4375V73.8125H150.562Z" fill="#F9ECF0"/>
<path d="M150.562 131.938V135.812H61.4375V131.938H150.562Z" fill="#F9ECF0"/>
<path d="M119.562 65.2875V89.3125C119.562 90.3402 119.154 91.3258 118.427 92.0525C117.701 92.7792 116.715 93.1875 115.687 93.1875H96.3123C95.2845 93.1875 94.2989 92.7792 93.5722 92.0525C92.8455 91.3258 92.4373 90.3402 92.4373 89.3125C92.4373 64.7644 91.0616 57.8281 97.6685 47.6756C99.8691 44.2631 102.696 41.2982 106 38.9375C110.189 41.9384 113.604 45.8932 115.962 50.4751C118.321 55.057 119.555 60.1343 119.562 65.2875Z" fill="#FFE069"/>
<path d="M119.562 65.2875V89.3125C119.562 90.3402 119.154 91.3258 118.427 92.0525C117.701 92.7792 116.715 93.1875 115.687 93.1875H96.3123C95.2845 93.1875 94.2989 92.7792 93.5722 92.0525C92.8455 91.3258 92.4373 90.3402 92.4373 89.3125C92.4373 64.7644 91.0616 57.8281 97.6685 47.6756C99.8691 44.2631 102.696 41.2982 106 38.9375C110.189 41.9384 113.604 45.8932 115.962 50.4751C118.321 55.057 119.555 60.1343 119.562 65.2875Z" fill="#FFE069"/>
<path d="M119.562 85.4375V89.3125C119.562 90.3402 119.154 91.3258 118.428 92.0525C117.701 92.7792 116.715 93.1875 115.688 93.1875H96.3125C95.2848 93.1875 94.2992 92.7792 93.5725 92.0525C92.8458 91.3258 92.4375 90.3402 92.4375 89.3125V85.4375C92.4375 86.4652 92.8458 87.4508 93.5725 88.1775C94.2992 88.9042 95.2848 89.3125 96.3125 89.3125H115.688C116.715 89.3125 117.701 88.9042 118.428 88.1775C119.154 87.4508 119.562 86.4652 119.562 85.4375Z" fill="#F9ECF0"/>
<path d="M119.562 71.875L135.062 83.5V89.3125H119.562V71.875Z" fill="#F03E4E"/>
<path d="M92.4375 71.875L76.9375 83.5V89.3125H92.4375V71.875Z" fill="#F03E4E"/>
<path d="M135.062 85.4375H119.562V89.3125H135.062V85.4375Z" fill="#F03E4E"/>
<path d="M92.4375 85.4375H76.9375V89.3125H92.4375V85.4375Z" fill="#F03E4E"/>
<path d="M115.688 93.1875L113.75 100.938H98.25L96.3125 93.1875H115.688Z" fill="#F03E4E"/>
<path d="M106 83.5C110.28 83.5 113.75 80.0302 113.75 75.75C113.75 71.4698 110.28 68 106 68C101.72 68 98.25 71.4698 98.25 75.75C98.25 80.0302 101.72 83.5 106 83.5Z" fill="#1813AC"/>
<path d="M106 83.5C110.28 83.5 113.75 80.0302 113.75 75.75C113.75 71.4698 110.28 68 106 68C101.72 68 98.25 71.4698 98.25 75.75C98.25 80.0302 101.72 83.5 106 83.5Z" fill="#1813AC"/>
<path d="M106 83.5C104.818 83.4991 103.651 83.2277 102.59 82.7067C101.529 82.1856 100.601 81.4286 99.8772 80.4936C99.1535 79.5586 98.6534 78.4705 98.415 77.3125C98.1766 76.1545 98.2064 74.9573 98.502 73.8125C98.9354 75.471 99.9065 76.939 101.263 77.9867C102.62 79.0344 104.286 79.6027 106 79.6027C107.714 79.6027 109.38 79.0344 110.737 77.9867C112.094 76.939 113.065 75.471 113.498 73.8125C113.794 74.9573 113.824 76.1545 113.585 77.3125C113.347 78.4705 112.847 79.5586 112.123 80.4936C111.399 81.4286 110.471 82.1856 109.41 82.7067C108.349 83.2277 107.182 83.4991 106 83.5Z" fill="#615BFF"/>
<path d="M114.331 47.6756C111.958 49.5488 109.023 50.5676 106 50.5676C102.977 50.5676 100.042 49.5488 97.6689 47.6756C99.8695 44.2631 102.696 41.2982 106 38.9375C109.304 41.2982 112.131 44.2631 114.331 47.6756Z" fill="#F03E4E"/>
<path d="M49.8125 143.562H162.188C163.215 143.562 164.201 143.971 164.928 144.697C165.654 145.424 166.062 146.41 166.062 147.438V151.312C166.062 153.368 165.246 155.339 163.793 156.793C162.339 158.246 160.368 159.062 158.312 159.062H53.6875C51.6321 159.062 49.6608 158.246 48.2074 156.793C46.754 155.339 45.9375 153.368 45.9375 151.312V147.438C45.9375 146.41 46.3458 145.424 47.0725 144.697C47.7992 143.971 48.7848 143.562 49.8125 143.562Z" fill="#FFEBD3"/>
<path d="M166.062 147.438V151.312C166.062 153.368 165.246 155.339 163.793 156.793C162.339 158.246 160.368 159.062 158.312 159.062H53.6875C51.6321 159.062 49.6608 158.246 48.2074 156.793C46.754 155.339 45.9375 153.368 45.9375 151.312V147.438C45.9375 149.493 46.754 151.464 48.2074 152.918C49.6608 154.371 51.6321 155.188 53.6875 155.188H158.312C160.368 155.188 162.339 154.371 163.793 152.918C165.246 151.464 166.062 149.493 166.062 147.438Z" fill="#E9A89C"/>
<path d="M121.5 149.375H90.5L86.625 143.562H125.375L121.5 149.375Z" fill="#FFE069"/>
<path d="M158.312 139.688H53.6875V143.562H158.312V139.688Z" fill="#E9A89C"/>
<path d="M146.688 135.812H65.3125C65.3125 133.757 66.129 131.786 67.5824 130.332C69.0358 128.879 71.0071 128.062 73.0625 128.062C73.0623 126.129 73.6408 124.239 74.7235 122.637C75.8062 121.035 77.3435 119.794 79.1378 119.073C80.932 118.352 82.9009 118.184 84.7912 118.591C86.6814 118.999 88.4065 119.963 89.7444 121.359C90.3046 120.524 91.0443 119.826 91.9094 119.314C92.7744 118.802 93.7429 118.491 94.744 118.401C95.7451 118.312 96.7534 118.448 97.6953 118.799C98.6371 119.15 99.4886 119.706 100.188 120.429V100.938H111.812V120.429C112.511 119.706 113.363 119.15 114.305 118.799C115.247 118.448 116.255 118.312 117.256 118.401C118.257 118.491 119.226 118.802 120.091 119.314C120.956 119.826 121.695 120.524 122.256 121.359C123.594 119.963 125.319 118.999 127.209 118.591C129.099 118.184 131.068 118.352 132.862 119.073C134.656 119.794 136.194 121.035 137.277 122.637C138.359 124.239 138.938 126.129 138.938 128.062C140.993 128.062 142.964 128.879 144.418 130.332C145.871 131.786 146.688 133.757 146.688 135.812Z" fill="#FFEBD3"/>
<path d="M146.688 135.812H65.3125C65.3149 134.451 65.6758 133.115 66.3587 131.938H145.641C146.324 133.115 146.685 134.451 146.688 135.812Z" fill="#F9ECF0"/>
<path d="M98.25 124.188V100.938H102.125V124.188C102.125 124.701 101.921 125.194 101.558 125.558C101.194 125.921 100.701 126.125 100.188 126.125C99.6736 126.125 99.1808 125.921 98.8175 125.558C98.4541 125.194 98.25 124.701 98.25 124.188Z" fill="#F9ECF0"/>
<path d="M109.875 124.188V100.938H113.75V124.188C113.75 124.701 113.546 125.194 113.183 125.558C112.819 125.921 112.326 126.125 111.812 126.125C111.299 126.125 110.806 125.921 110.442 125.558C110.079 125.194 109.875 124.701 109.875 124.188Z" fill="url(#paint0_linear)"/>
<path d="M106 85.4375C107.916 85.4375 109.789 84.8693 111.382 83.8049C112.975 82.7404 114.217 81.2274 114.95 79.4573C115.683 77.6871 115.875 75.7393 115.501 73.8601C115.128 71.9809 114.205 70.2547 112.85 68.8999C111.495 67.5451 109.769 66.6224 107.89 66.2486C106.011 65.8749 104.063 66.0667 102.293 66.7999C100.523 67.5331 99.0096 68.7748 97.9451 70.3679C96.8807 71.961 96.3125 73.834 96.3125 75.75C96.3125 78.3193 97.3331 80.7833 99.1499 82.6001C100.967 84.4169 103.431 85.4375 106 85.4375ZM106 69.9375C107.15 69.9375 108.273 70.2784 109.229 70.9171C110.185 71.5558 110.93 72.4636 111.37 73.5257C111.81 74.5878 111.925 75.7565 111.701 76.884C111.477 78.0115 110.923 79.0472 110.11 79.8601C109.297 80.673 108.261 81.2265 107.134 81.4508C106.006 81.6751 104.838 81.56 103.776 81.1201C102.714 80.6801 101.806 79.9351 101.167 78.9793C100.528 78.0234 100.187 76.8996 100.187 75.75C100.187 74.2084 100.8 72.73 101.89 71.6399C102.98 70.5499 104.458 69.9375 106 69.9375Z" fill="black"/>
<path d="M162.188 141.624H160.25V71.8744C160.25 69.8189 159.433 67.8477 157.98 66.3943C156.527 64.9409 154.555 64.1244 152.5 64.1244H121.5C121.321 58.8596 119.931 53.7069 117.438 49.0664C114.944 44.426 111.415 40.4227 107.124 37.3675C106.796 37.1338 106.403 37.0083 106 37.0083C105.597 37.0083 105.204 37.1338 104.876 37.3675C100.585 40.4227 97.0555 44.426 94.5623 49.0664C92.069 53.7069 90.6789 58.8596 90.5 64.1244H59.5C57.4446 64.1244 55.4733 64.9409 54.0199 66.3943C52.5665 67.8477 51.75 69.8189 51.75 71.8744V141.624H49.8125C48.2709 141.624 46.7925 142.237 45.7024 143.327C44.6124 144.417 44 145.895 44 147.437V151.312C44 153.881 45.0206 156.345 46.8374 158.162C48.6542 159.979 51.1182 160.999 53.6875 160.999H158.312C160.882 160.999 163.346 159.979 165.163 158.162C166.979 156.345 168 153.881 168 151.312V147.437C168 145.895 167.388 144.417 166.298 143.327C165.207 142.237 163.729 141.624 162.188 141.624ZM63.375 75.7494H84.0481C75.1163 82.4531 75 82.2012 75 83.4994V89.3119C75 89.8257 75.2041 90.3185 75.5675 90.6819C75.9308 91.0452 76.4236 91.2494 76.9375 91.2494H90.8488C91.1608 92.1174 91.675 92.8988 92.3488 93.5288C93.0226 94.1588 93.8367 94.6194 94.7238 94.8725L96.3125 101.402C96.4186 101.832 96.6687 102.212 97.0212 102.48C97.3738 102.748 97.8074 102.887 98.25 102.874V116.979C96.791 116.437 95.2107 116.308 93.6828 116.605C92.1549 116.902 90.7385 117.615 89.5894 118.665C87.977 117.497 86.0916 116.762 84.1139 116.531C82.1361 116.301 80.1322 116.582 78.2944 117.348C76.4566 118.115 74.8464 119.34 73.6181 120.907C72.3899 122.475 71.5848 124.331 71.28 126.299C69.3803 126.645 67.6275 127.552 66.2465 128.901C64.8656 130.251 63.9196 131.983 63.53 133.874C63.375 133.874 63.375 138.331 63.375 75.7494ZM90.5 87.3744H78.875V84.4681L90.5 75.7494V87.3744ZM112.239 98.9994H100.188C99.6063 98.9994 99.8969 99.5419 98.7925 95.1244H113.208L112.239 98.9994ZM73.0625 129.999C73.5764 129.999 74.0692 129.795 74.4325 129.432C74.7959 129.069 75 128.576 75 128.062C75.0025 126.634 75.3994 125.234 76.1469 124.018C76.8945 122.801 77.9636 121.815 79.2363 121.167C80.509 120.52 81.9359 120.237 83.3593 120.349C84.7828 120.461 86.1476 120.965 87.3031 121.804C84.6875 128.197 90.5 128.062 90.5 125.156C90.5 123.871 91.0103 122.639 91.9187 121.731C92.8271 120.822 94.0591 120.312 95.3438 120.312C96.6284 120.312 97.8604 120.822 98.7688 121.731C99.6772 122.639 100.188 123.871 100.188 125.156C100.188 125.669 100.392 126.162 100.755 126.526C101.118 126.889 101.611 127.093 102.125 127.093C102.639 127.093 103.132 126.889 103.495 126.526C103.858 126.162 104.062 125.669 104.062 125.156C104.058 123.184 103.374 121.275 102.125 119.75V102.874H109.875V119.75C107.821 122.249 106.814 127.093 109.875 127.093C110.389 127.093 110.882 126.889 111.245 126.526C111.608 126.162 111.812 125.669 111.812 125.156C111.812 123.871 112.323 122.639 113.231 121.731C114.14 120.822 115.372 120.312 116.656 120.312C117.941 120.312 119.173 120.822 120.081 121.731C120.99 122.639 121.5 123.871 121.5 125.156C121.5 128.101 127.312 128.217 124.697 121.804C125.852 120.965 127.217 120.461 128.641 120.349C130.064 120.237 131.491 120.52 132.764 121.167C134.036 121.815 135.106 122.801 135.853 124.018C136.601 125.234 136.998 126.634 137 128.062C137 128.576 137.204 129.069 137.567 129.432C137.931 129.795 138.424 129.999 138.938 129.999C140.137 130.003 141.306 130.377 142.284 131.071C143.262 131.764 144.002 132.744 144.401 133.874H67.5988C67.9985 132.744 68.7381 131.764 69.7163 131.071C70.6945 130.377 71.8633 130.003 73.0625 129.999ZM148.431 133.874C148.042 131.983 147.096 130.251 145.715 128.901C144.334 127.552 142.581 126.645 140.681 126.299C140.376 124.331 139.571 122.475 138.343 120.907C137.115 119.34 135.505 118.115 133.667 117.348C131.829 116.582 129.825 116.301 127.847 116.531C125.87 116.762 123.984 117.497 122.372 118.665C121.228 117.62 119.818 116.911 118.297 116.613C116.777 116.316 115.203 116.443 113.75 116.979V102.874C114.193 102.887 114.626 102.748 114.979 102.48C115.331 102.212 115.581 101.832 115.688 101.402L117.315 94.8725C118.202 94.6194 119.016 94.1588 119.69 93.5288C120.364 92.8988 120.878 92.1174 121.19 91.2494H135.062C135.576 91.2494 136.069 91.0452 136.433 90.6819C136.796 90.3185 137 89.8257 137 89.3119V83.4994C137 82.2012 137 82.4919 127.952 75.7494H148.625C148.625 138.331 148.741 133.874 148.431 133.874ZM121.5 75.7494L133.125 84.4681V87.3744H121.5V75.7494ZM111.619 47.1712C109.898 48.1211 107.965 48.6193 106 48.6193C104.035 48.6193 102.102 48.1211 100.381 47.1712C102.002 45.0046 103.89 43.0516 106 41.3587C108.109 43.0534 109.997 45.0062 111.619 47.1712ZM98.25 50.4069C100.596 51.7964 103.273 52.5295 106 52.5295C108.727 52.5295 111.404 51.7964 113.75 50.4069C118.768 59.3 117.625 64.7637 117.625 89.3119C117.625 89.8257 117.421 90.3185 117.058 90.6819C116.694 91.0452 116.201 91.2494 115.688 91.2494H96.3125C95.7986 91.2494 95.3058 91.0452 94.9425 90.6819C94.5791 90.3185 94.375 89.8257 94.375 89.3119C94.375 64.4731 93.3481 59.1644 98.25 50.4069ZM55.625 71.8744C55.625 70.8466 56.0333 69.861 56.76 69.1343C57.4867 68.4076 58.4723 67.9994 59.5 67.9994H90.5C90.5 73.0369 93.8519 71.8744 61.4375 71.8744C60.9236 71.8744 60.4308 72.0785 60.0675 72.4418C59.7041 72.8052 59.5 73.298 59.5 73.8119V135.812C59.5 136.326 59.7041 136.819 60.0675 137.182C60.4308 137.545 60.9236 137.749 61.4375 137.749H150.562C151.076 137.749 151.569 137.545 151.933 137.182C152.296 136.819 152.5 136.326 152.5 135.812V73.8119C152.5 73.298 152.296 72.8052 151.933 72.4418C151.569 72.0785 151.076 71.8744 150.562 71.8744C118.264 71.8744 121.5 73.1531 121.5 67.9994H152.5C153.528 67.9994 154.513 68.4076 155.24 69.1343C155.967 69.861 156.375 70.8466 156.375 71.8744V141.624H55.625V71.8744ZM121.752 145.499L120.454 147.437H91.5463L90.2481 145.499H121.752ZM164.125 151.312C164.125 152.853 163.513 154.332 162.423 155.422C161.332 156.512 159.854 157.124 158.312 157.124H53.6875C52.1459 157.124 50.6675 156.512 49.5774 155.422C48.4874 154.332 47.875 152.853 47.875 151.312V147.437C47.875 146.923 48.0791 146.43 48.4425 146.067C48.8058 145.703 49.2986 145.499 49.8125 145.499H85.5787L88.8919 150.44C89.7056 151.68 88.02 151.312 121.5 151.312C122.837 151.312 122.934 150.711 126.421 145.499H162.188C162.701 145.499 163.194 145.703 163.558 146.067C163.921 146.43 164.125 146.923 164.125 147.437V151.312Z" fill="black"/>
</g>
<defs>
<linearGradient id="paint0_linear" x1="245.5" y1="932.125" x2="245.5" y2="1259.31" gradientUnits="userSpaceOnUse">
<stop stop-color="#D4D8E1"/>
<stop offset="1" stop-color="#F3F4F5"/>
</linearGradient>
<clipPath id="clip0">
<rect width="124" height="124" fill="white" transform="translate(44 37)"/>
</clipPath>
</defs>
</svg>
