<svg width="122" height="127" viewBox="0 0 122 127" fill="none" xmlns="http://www.w3.org/2000/svg">
<path fill-rule="evenodd" clip-rule="evenodd" d="M57.852 1.32248C70.1016 -1.5036 84.6778 -0.0812309 93.9728 8.33196C103.103 16.5955 102.463 30.6918 103.777 42.8906C104.832 52.6857 101.855 61.7733 100.784 71.5666C99.3316 84.8401 105.305 100.403 96.3909 110.397C87.4044 120.472 71.381 120.478 57.852 119.698C44.9023 118.952 32.6825 114.028 22.4313 106.134C12.4247 98.4281 4.05143 88.2541 1.12976 76.0171C-1.66529 64.3104 0.894482 51.7051 6.94788 41.2837C12.3204 32.0346 23.7281 29.2134 32.1625 22.5922C41.128 15.5539 46.7205 3.89062 57.852 1.32248Z" fill="#F9ECF0"/>
<g clip-path="url(#clip0)">
<path d="M65.9998 102.5C58.0432 102.494 50.3835 99.4778 44.5597 94.0565C38.7359 88.6352 35.1794 81.2108 34.6048 73.275C32.3648 48.6175 60.1548 30.3825 82.4848 44.155C109.645 61.62 97.3598 102.5 65.9998 102.5Z" fill="#FFEBD3"/>
<path d="M65.9995 102.5C61.6927 102.508 57.4298 101.633 53.4745 99.9293C49.5191 98.2251 45.9552 95.728 43.003 92.5921C40.0508 89.4562 37.773 85.7482 36.3105 81.6973C34.8479 77.6464 34.2315 73.3386 34.4995 69.04C34.4508 77.3944 37.7228 85.4259 43.5957 91.3677C49.4687 97.3096 57.4615 100.675 65.8158 100.724C74.1701 100.773 82.2016 97.5005 88.1435 91.6276C94.0853 85.7546 97.4508 77.7619 97.4995 69.4075C97.7156 73.6762 97.0607 77.9442 95.5747 81.9517C94.0887 85.9592 91.8027 89.6223 88.8559 92.7182C85.909 95.814 82.363 98.2778 78.4336 99.9594C74.5042 101.641 70.2736 102.506 65.9995 102.5Z" fill="#1813AC"/>
<path d="M54.3103 61.8474C56.2723 61.8474 57.8628 60.2569 57.8628 58.2949C57.8628 56.3329 56.2723 54.7424 54.3103 54.7424C52.3483 54.7424 50.7578 56.3329 50.7578 58.2949C50.7578 60.2569 52.3483 61.8474 54.3103 61.8474Z" fill="#1813AC"/>
<path d="M83.78 61.8474C85.742 61.8474 87.3325 60.2569 87.3325 58.2949C87.3325 56.3329 85.742 54.7424 83.78 54.7424C81.818 54.7424 80.2275 56.3329 80.2275 58.2949C80.2275 60.2569 81.818 61.8474 83.78 61.8474Z" fill="#1813AC"/>
<path d="M67.5229 89.2875C66.7762 89.3182 66.0393 89.1092 65.42 88.6909C64.8007 88.2726 64.3315 87.6671 64.0812 86.963C63.8308 86.2589 63.8124 85.4931 64.0286 84.7778C64.2449 84.0624 64.6844 83.435 65.2829 82.9875C65.6554 82.6742 66.0893 82.4421 66.5567 82.3059C67.0241 82.1698 67.5147 82.1326 67.9973 82.1969C68.4798 82.2611 68.9437 82.4253 69.3592 82.6789C69.7747 82.9326 70.1327 83.2701 70.4104 83.67C70.8103 84.1958 71.0533 84.8241 71.1112 85.4823C71.1691 86.1404 71.0396 86.8015 70.7375 87.389C70.4355 87.9766 69.9733 88.4667 69.4045 88.8027C68.8356 89.1386 68.1832 89.3067 67.5229 89.2875Z" fill="#1813AC"/>
<path d="M66 27.25C68.8995 27.25 71.25 24.8995 71.25 22C71.25 19.1005 68.8995 16.75 66 16.75C63.1005 16.75 60.75 19.1005 60.75 22C60.75 24.8995 63.1005 27.25 66 27.25Z" fill="#F03E4E"/>
<path d="M66 125.25C68.8995 125.25 71.25 122.899 71.25 120C71.25 117.101 68.8995 114.75 66 114.75C63.1005 114.75 60.75 117.101 60.75 120C60.75 122.899 63.1005 125.25 66 125.25Z" fill="#F03E4E"/>
<path d="M100.649 41.6C103.549 41.6 105.899 39.2495 105.899 36.35C105.899 33.4505 103.549 31.1 100.649 31.1C97.7499 31.1 95.3994 33.4505 95.3994 36.35C95.3994 39.2495 97.7499 41.6 100.649 41.6Z" fill="#FFE069"/>
<path d="M31.3506 110.9C34.2501 110.9 36.6006 108.55 36.6006 105.65C36.6006 102.751 34.2501 100.4 31.3506 100.4C28.4511 100.4 26.1006 102.751 26.1006 105.65C26.1006 108.55 28.4511 110.9 31.3506 110.9Z" fill="#FFE069"/>
<path d="M100.649 110.9C103.549 110.9 105.899 108.55 105.899 105.65C105.899 102.751 103.549 100.4 100.649 100.4C97.7499 100.4 95.3994 102.751 95.3994 105.65C95.3994 108.55 97.7499 110.9 100.649 110.9Z" fill="#FFE069"/>
<path d="M31.3506 41.6C34.2501 41.6 36.6006 39.2495 36.6006 36.35C36.6006 33.4505 34.2501 31.1 31.3506 31.1C28.4511 31.1 26.1006 33.4505 26.1006 36.35C26.1006 39.2495 28.4511 41.6 31.3506 41.6Z" fill="#FFE069"/>
<path d="M115 76.25C117.899 76.25 120.25 73.8995 120.25 71C120.25 68.1005 117.899 65.75 115 65.75C112.101 65.75 109.75 68.1005 109.75 71C109.75 73.8995 112.101 76.25 115 76.25Z" fill="#F03E4E"/>
<path d="M17 76.25C19.8995 76.25 22.25 73.8995 22.25 71C22.25 68.1005 19.8995 65.75 17 65.75C14.1005 65.75 11.75 68.1005 11.75 71C11.75 73.8995 14.1005 76.25 17 76.25Z" fill="#F03E4E"/>
<path d="M108.245 69.25H99.25C98.8944 61.6442 95.8922 54.4018 90.7625 48.775L97.185 42.37C98.4767 43.1292 99.9779 43.454 101.468 43.2965C102.958 43.139 104.358 42.5075 105.463 41.495C106.437 40.6018 107.139 39.4509 107.486 38.1755C107.834 36.9001 107.813 35.5523 107.427 34.2881C107.04 33.0239 106.304 31.895 105.303 31.032C104.301 30.169 103.076 29.6072 101.768 29.4116C100.461 29.216 99.125 29.3947 97.9149 29.9268C96.7048 30.459 95.6701 31.323 94.9306 32.4187C94.1911 33.5144 93.7769 34.7972 93.7361 36.1185C93.6953 37.4398 94.0295 38.7457 94.7 39.885L88.225 46.3075C82.6313 41.1164 75.3741 38.0833 67.75 37.75V28.755C75.835 26.655 73.98 15 66 15C64.3111 15.0202 62.6864 15.6505 61.4256 16.7745C60.1649 17.8985 59.353 19.4405 59.1399 21.116C58.9267 22.7916 59.3266 24.4877 60.2657 25.8916C61.2048 27.2955 62.6199 28.3125 64.25 28.755V37.75C56.6468 38.1022 49.4051 41.0979 43.775 46.22L37.37 39.815C38.2334 38.347 38.532 36.6145 38.2099 34.9421C37.8877 33.2698 36.9669 31.7722 35.6199 30.73C34.2729 29.6878 32.5922 29.1724 30.8925 29.2803C29.1928 29.3883 27.5908 30.1122 26.3865 31.3165C25.1822 32.5208 24.4583 34.1228 24.3503 35.8225C24.2424 37.5222 24.7578 39.2029 25.8 40.5499C26.8422 41.8969 28.3398 42.8177 30.0121 43.1399C31.6845 43.462 33.417 43.1634 34.885 42.3L41.3075 48.7225C36.1834 54.3799 33.1617 61.6281 32.75 69.25H23.755C21.6725 61.235 10 62.915 10 71C10 79.085 21.6725 80.7475 23.755 72.75H32.75C33.1199 80.3545 36.1129 87.596 41.22 93.2425L34.815 99.63C33.5981 98.8952 32.1825 98.5577 30.765 98.6643C29.3474 98.771 27.9983 99.3165 26.905 100.225C26.7482 100.305 26.6108 100.419 26.5025 100.557C19.87 106.805 29.0925 117.357 36.425 110.392C37.4375 109.288 38.069 107.888 38.2265 106.398C38.384 104.908 38.0592 103.407 37.3 102.115L43.6875 95.71C49.3376 100.865 56.6103 103.885 64.25 104.25V113.315C62.6724 113.799 61.3167 114.826 60.4222 116.212C59.5277 117.599 59.152 119.258 59.3613 120.895C59.5706 122.532 60.3516 124.042 61.5663 125.159C62.781 126.276 64.3513 126.928 66 127C74.085 127 75.765 115.327 67.75 113.245V104.25C75.3551 103.883 82.5976 100.89 88.2425 95.78L94.63 102.185C93.8708 103.477 93.546 104.978 93.7035 106.468C93.861 107.958 94.4925 109.358 95.505 110.463C96.3982 111.437 97.5491 112.139 98.8245 112.486C100.1 112.834 101.448 112.813 102.712 112.427C103.976 112.04 105.105 111.304 105.968 110.303C106.831 109.301 107.393 108.076 107.588 106.768C107.784 105.461 107.605 104.125 107.073 102.915C106.541 101.705 105.677 100.67 104.581 99.9306C103.486 99.1911 102.203 98.7769 100.881 98.7361C99.5602 98.6953 98.2543 99.0295 97.115 99.7L90.71 93.3125C95.8625 87.6608 98.8825 80.389 99.25 72.75H108.298C110.397 80.835 122.052 78.98 122.052 71C122.083 69.2748 121.475 67.599 120.346 66.2944C119.217 64.9898 117.646 64.1482 115.934 63.9313C114.222 63.7143 112.49 64.1372 111.071 65.1189C109.652 66.1005 108.646 67.5717 108.245 69.25ZM50.7925 96.55C55.7728 95.2311 60.5025 93.1028 64.7925 90.25C65.6401 90.7826 66.6247 91.0564 67.6257 91.0377C68.6266 91.0191 69.6003 90.7088 70.4275 90.145C73.7472 92.7472 77.4026 94.8898 81.295 96.515C76.6911 99.2843 71.4212 100.75 66.0486 100.757C60.676 100.763 55.4027 99.3087 50.7925 96.55ZM36.25 72.155C40.1741 67.7612 44.9332 64.1919 50.25 61.655C51.034 62.5706 52.1092 63.1885 53.295 63.405C54.9547 70.5663 58.2623 77.2416 62.955 82.9C62.5273 83.5858 62.2637 84.3611 62.1848 85.1655C62.1059 85.9699 62.2137 86.7816 62.5 87.5375C57.7719 90.6267 52.4879 92.7664 46.9425 93.8375C43.7419 91.1731 41.1364 87.8664 39.2945 84.1313C37.4526 80.3963 36.4154 76.3162 36.25 72.155ZM52.7525 44.3475C52.2051 47.3667 51.9531 50.432 52 53.5C51.061 53.9338 50.2711 54.6352 49.7294 55.5163C49.1877 56.3974 48.9183 57.4188 48.955 58.4525C44.3744 60.5913 40.1627 63.4444 36.4775 66.905C37.1683 62.1037 39.0152 57.5421 41.8594 53.6127C44.7036 49.6833 48.4598 46.5037 52.805 44.3475H52.7525ZM82.24 46.0975C82.5093 48.4211 82.5562 50.765 82.38 53.0975C81.1938 53.4521 80.1711 54.2145 79.4925 55.25C72.6126 53.71 65.4774 53.71 58.5975 55.25C57.8523 54.1991 56.7521 53.4532 55.5 53.15C55.455 49.6516 55.837 46.1608 56.6375 42.755C60.8897 41.3342 65.4096 40.9 69.8545 41.4852C74.2994 42.0703 78.5529 43.6596 82.2925 46.1325L82.24 46.0975ZM52.49 58.3475C52.49 57.8694 52.6799 57.411 53.0179 57.0729C53.356 56.7349 53.8144 56.545 54.2925 56.545C54.7706 56.545 55.229 56.7349 55.5671 57.0729C55.9051 57.411 56.095 57.8694 56.095 58.3475C56.0916 58.5831 56.0417 58.8156 55.9484 59.0319C55.8551 59.2482 55.7201 59.4441 55.5511 59.6082C55.3821 59.7723 55.1824 59.9015 54.9634 59.9885C54.7445 60.0755 54.5106 60.1185 54.275 60.115C54.0394 60.1116 53.8069 60.0617 53.5906 59.9684C53.3743 59.8751 53.1784 59.7401 53.0143 59.5711C52.8502 59.4021 52.721 59.2024 52.634 58.9834C52.547 58.7645 52.5041 58.5306 52.5075 58.295L52.49 58.3475ZM68.905 84.5975C69.1624 84.9106 69.3031 85.3034 69.3031 85.7087C69.3031 86.1141 69.1624 86.5069 68.905 86.82C68.676 87.0986 68.3665 87.2997 68.0189 87.3956C67.6712 87.4916 67.3024 87.4779 66.9629 87.3562C66.6234 87.2346 66.3297 87.011 66.1221 86.7161C65.9145 86.4212 65.8031 86.0694 65.8031 85.7087C65.8031 85.3481 65.9145 84.9963 66.1221 84.7014C66.3297 84.4065 66.6234 84.1829 66.9629 84.0613C67.3024 83.9397 67.6712 83.9259 68.0189 84.0219C68.3665 84.1179 68.676 84.3189 68.905 84.5975ZM70.165 81.0975C69.5023 80.6839 68.7524 80.4306 67.9747 80.3577C67.197 80.2848 66.413 80.3943 65.685 80.6775C61.4037 75.5292 58.3675 69.4628 56.8125 62.95C57.6178 62.5225 58.2978 61.8926 58.7857 61.1224C59.2736 60.3522 59.5525 59.4682 59.595 58.5575C65.8211 57.1927 72.2689 57.1927 78.495 58.5575C78.5291 59.3832 78.7577 60.1892 79.1622 60.9099C79.5666 61.6306 80.1355 62.2457 80.8225 62.705C78.8604 69.6509 75.2044 76.0008 70.1825 81.185L70.165 81.0975ZM83.7625 60.0975C83.2845 60.0975 82.826 59.9076 82.4879 59.5696C82.1499 59.2315 81.96 58.7731 81.96 58.295C81.96 57.8169 82.1499 57.3585 82.4879 57.0204C82.826 56.6824 83.2845 56.4925 83.7625 56.4925C84.2406 56.4902 84.6999 56.6779 85.0396 57.0143C85.3793 57.3506 85.5714 57.8082 85.5738 58.2863C85.5761 58.7643 85.3884 59.2237 85.052 59.5634C84.7156 59.903 84.258 60.0952 83.78 60.0975H83.7625ZM85.915 53.5C86.0331 52.0265 86.0331 50.546 85.915 49.0725C89.5547 52.3777 92.3304 56.5232 94 61.1475C92.4006 60.1526 90.7407 59.2583 89.03 58.47C89.0643 57.4256 88.7862 56.3948 88.2313 55.5094C87.6764 54.624 86.8699 53.9244 85.915 53.5ZM103.118 33.935C103.528 34.3432 103.831 34.8467 103.999 35.4006C104.167 35.9545 104.195 36.5414 104.08 37.1087C103.966 37.6761 103.712 38.2062 103.343 38.6516C102.973 39.0971 102.499 39.4439 101.962 39.661C101.426 39.8781 100.844 39.9588 100.268 39.8958C99.6931 39.8328 99.1423 39.6281 98.6655 39.3C98.1887 38.972 97.8006 38.5308 97.5361 38.0159C97.2717 37.5011 97.139 36.9287 97.15 36.35C97.1529 35.6599 97.3597 34.9861 97.7445 34.4132C98.1293 33.8403 98.6748 33.394 99.3126 33.1303C99.9503 32.8666 100.652 32.7973 101.329 32.9311C102.006 33.065 102.628 33.396 103.118 33.8825V33.935ZM62.5 22C62.5 21.3078 62.7053 20.6311 63.0899 20.0555C63.4744 19.4799 64.0211 19.0313 64.6606 18.7664C65.3001 18.5015 66.0039 18.4322 66.6828 18.5673C67.3618 18.7023 67.9854 19.0356 68.4749 19.5251C68.9644 20.0146 69.2977 20.6383 69.4327 21.3172C69.5678 21.9961 69.4985 22.6999 69.2336 23.3394C68.9687 23.9789 68.5201 24.5256 67.9445 24.9101C67.3689 25.2947 66.6922 25.5 66 25.5C65.0717 25.5 64.1815 25.1313 63.5251 24.4749C62.8688 23.8185 62.5 22.9283 62.5 22ZM28.8825 38.835C28.3934 38.3454 28.0604 37.7217 27.9257 37.0429C27.791 36.3641 27.8605 35.6605 28.1255 35.0212C28.3906 34.3819 28.8392 33.8355 29.4147 33.4511C29.9901 33.0667 30.6667 32.8615 31.3587 32.8615C32.0508 32.8615 32.7274 33.0667 33.3028 33.4511C33.8783 33.8355 34.3269 34.3819 34.592 35.0212C34.857 35.6605 34.9265 36.3641 34.7918 37.0429C34.657 37.7217 34.3241 38.3454 33.835 38.835C33.1657 39.4676 32.2797 39.82 31.3587 39.82C30.4378 39.82 29.5518 39.4676 28.8825 38.835ZM17 74.5C16.3078 74.5 15.6311 74.2947 15.0555 73.9101C14.4799 73.5256 14.0313 72.9789 13.7664 72.3394C13.5015 71.6998 13.4322 70.9961 13.5673 70.3172C13.7023 69.6383 14.0356 69.0146 14.5251 68.5251C15.0146 68.0356 15.6383 67.7023 16.3172 67.5673C16.9961 67.4322 17.6999 67.5015 18.3394 67.7664C18.9789 68.0313 19.5256 68.4799 19.9101 69.0555C20.2947 69.6311 20.5 70.3078 20.5 71C20.5 71.9283 20.1313 72.8185 19.4749 73.4749C18.8185 74.1313 17.9283 74.5 17 74.5ZM28.8825 108.118C28.3934 107.628 28.0604 107.004 27.9257 106.325C27.791 105.647 27.8605 104.943 28.1255 104.304C28.3906 103.664 28.8392 103.118 29.4147 102.734C29.9901 102.349 30.6667 102.144 31.3587 102.144C32.0508 102.144 32.7274 102.349 33.3028 102.734C33.8783 103.118 34.3269 103.664 34.592 104.304C34.857 104.943 34.9265 105.647 34.7918 106.325C34.657 107.004 34.3241 107.628 33.835 108.118C33.5099 108.443 33.1239 108.701 32.699 108.877C32.2741 109.053 31.8187 109.144 31.3587 109.144C30.8988 109.144 30.4434 109.053 30.0185 108.877C29.5936 108.701 29.2076 108.443 28.8825 108.118ZM69.5 120C69.5 120.692 69.2947 121.369 68.9101 121.944C68.5256 122.52 67.9789 122.969 67.3394 123.234C66.6998 123.498 65.9961 123.568 65.3172 123.433C64.6383 123.298 64.0146 122.964 63.5251 122.475C63.0356 121.985 62.7023 121.362 62.5673 120.683C62.4322 120.004 62.5015 119.3 62.7664 118.661C63.0313 118.021 63.4799 117.474 64.0555 117.09C64.6311 116.705 65.3078 116.5 66 116.5C66.9283 116.5 67.8185 116.869 68.4749 117.525C69.1313 118.182 69.5 119.072 69.5 120ZM103.118 103.165C103.526 103.571 103.828 104.072 103.997 104.622C104.165 105.173 104.195 105.757 104.084 106.322C103.973 106.887 103.725 107.416 103.36 107.862C102.996 108.308 102.527 108.657 101.995 108.878C101.464 109.1 100.886 109.186 100.313 109.131C99.7393 109.075 99.1887 108.879 98.7094 108.56C98.2301 108.241 97.8371 107.808 97.565 107.3C97.293 106.793 97.1505 106.226 97.15 105.65C97.1495 104.958 97.3538 104.282 97.7373 103.707C98.1207 103.131 98.6661 102.682 99.3045 102.416C99.943 102.15 100.646 102.08 101.324 102.213C102.003 102.346 102.627 102.677 103.118 103.165ZM84.7425 94.1C80.3202 92.5426 76.1823 90.2726 72.4925 87.38C72.8928 86.2477 72.8928 85.0123 72.4925 83.88C78.0527 78.2163 82.0919 71.2396 84.235 63.5975C85.5836 63.487 86.8374 62.8601 87.735 61.8475C90.4104 63.0929 92.9498 64.6118 95.3125 66.38C96.1499 71.5221 95.6134 76.7942 93.7572 81.6622C91.9009 86.5301 88.791 90.821 84.7425 94.1ZM115 74.5C114.308 74.5 113.631 74.2947 113.056 73.9101C112.48 73.5256 112.031 72.9789 111.766 72.3394C111.502 71.6998 111.432 70.9961 111.567 70.3172C111.702 69.6383 112.036 69.0146 112.525 68.5251C113.015 68.0356 113.638 67.7023 114.317 67.5673C114.996 67.4322 115.7 67.5015 116.339 67.7664C116.979 68.0313 117.526 68.4799 117.91 69.0555C118.295 69.6311 118.5 70.3078 118.5 71C118.5 71.9283 118.131 72.8185 117.475 73.4749C116.818 74.1313 115.928 74.5 115 74.5Z" fill="black"/>
<path d="M20.2027 59.31C20.2699 58.8794 20.1741 58.4393 19.934 58.0756C19.6938 57.712 19.3267 57.451 18.9043 57.3437C18.4819 57.2365 18.0347 57.2907 17.6502 57.4958C17.2656 57.7008 16.9714 58.042 16.8252 58.4525C16.7434 58.682 16.7104 58.926 16.7284 59.169C16.7464 59.4119 16.8149 59.6484 16.9295 59.8634C17.0441 60.0784 17.2024 60.267 17.3941 60.4173C17.5859 60.5676 17.8069 60.6762 18.043 60.7361C18.2791 60.7961 18.5252 60.806 18.7654 60.7654C19.0056 60.7248 19.2347 60.6345 19.4379 60.5003C19.6412 60.366 19.8143 60.1908 19.9459 59.9859C20.0776 59.7809 20.1651 59.5507 20.2027 59.31Z" fill="black"/>
<path d="M25.3655 46.8849C25.5439 46.4901 25.5696 46.0432 25.4375 45.6306C25.3054 45.218 25.0249 44.8691 24.6504 44.6513C24.2758 44.4336 23.8339 44.3625 23.4099 44.4518C22.986 44.5411 22.6103 44.7845 22.3555 45.1349C22.1771 45.5297 22.1514 45.9766 22.2835 46.3892C22.4156 46.8018 22.6961 47.1508 23.0706 47.3685C23.4451 47.5863 23.8871 47.6573 24.3111 47.568C24.735 47.4787 25.1107 47.2353 25.3655 46.8849Z" fill="black"/>
<path d="M22.3379 52.9225C22.5166 52.4932 22.5175 52.0104 22.3402 51.5805C22.163 51.1506 21.8223 50.8087 21.3929 50.63C21.1804 50.5415 20.9524 50.4958 20.7222 50.4954C20.4919 50.495 20.2638 50.5399 20.051 50.6277C19.621 50.8049 19.2791 51.1457 19.1004 51.575C18.9217 52.0043 18.9209 52.487 19.0981 52.9169C19.2754 53.3469 19.6161 53.6888 20.0454 53.8675C20.4748 54.0462 20.9575 54.047 21.3874 53.8698C21.8173 53.6925 22.1592 53.3518 22.3379 52.9225Z" fill="black"/>
<path d="M92.512 29.7526C92.6904 29.3578 92.716 28.9109 92.5839 28.4983C92.4518 28.0857 92.1714 27.7367 91.7969 27.519C91.4223 27.3012 90.9803 27.2301 90.5564 27.3195C90.1325 27.4088 89.7568 27.6522 89.502 28.0026C89.3236 28.3974 89.2979 28.8443 89.43 29.2569C89.5621 29.6695 89.8426 30.0184 90.2171 30.2362C90.5916 30.4539 91.0336 30.525 91.4575 30.4357C91.8814 30.3464 92.2572 30.103 92.512 29.7526Z" fill="black"/>
<path d="M86.3702 26.3924C86.5489 25.9631 86.5497 25.4804 86.3725 25.0505C86.1952 24.6206 85.8545 24.2786 85.4252 24.0999C84.9958 23.9213 84.5131 23.9204 84.0832 24.0977C83.6533 24.2749 83.3114 24.6156 83.1327 25.0449C82.954 25.4743 82.9531 25.957 83.1304 26.3869C83.3076 26.8168 83.6483 27.1588 84.0777 27.3374C84.507 27.5161 84.9897 27.517 85.4196 27.3397C85.8496 27.1625 86.1915 26.8218 86.3702 26.3924Z" fill="black"/>
<path d="M79.8076 23.9424C79.8217 23.5444 79.6995 23.1536 79.4614 22.8343C79.2233 22.5151 78.8834 22.2867 78.4979 22.1867C78.1124 22.0868 77.7043 22.1213 77.3411 22.2846C76.9779 22.4479 76.6812 22.7302 76.5001 23.0849C76.4861 23.4829 76.6082 23.8738 76.8463 24.193C77.0845 24.5122 77.4243 24.7407 77.8098 24.8406C78.1953 24.9406 78.6034 24.906 78.9666 24.7427C79.3299 24.5794 79.6265 24.2971 79.8076 23.9424Z" fill="black"/>
<path d="M111.937 88.1325C111.508 87.9561 111.026 87.9575 110.598 88.1364C110.17 88.3152 109.83 88.6569 109.654 89.0862C109.477 89.5156 109.479 89.9974 109.658 90.4256C109.836 90.8539 110.178 91.1936 110.607 91.37C111.037 91.5464 111.519 91.545 111.947 91.3661C112.375 91.1872 112.715 90.8456 112.891 90.4162C113.068 89.9869 113.066 89.5051 112.887 89.0768C112.708 88.6486 112.367 88.3089 111.937 88.1325Z" fill="black"/>
<path d="M109.032 94.5026C108.637 94.3242 108.191 94.2985 107.778 94.4306C107.365 94.5627 107.016 94.8432 106.799 95.2177C106.581 95.5922 106.51 96.0342 106.599 96.4581C106.688 96.8821 106.932 97.2578 107.282 97.5126C107.677 97.691 108.124 97.7166 108.537 97.5845C108.949 97.4524 109.298 97.172 109.516 96.7975C109.734 96.4229 109.805 95.981 109.715 95.557C109.626 95.1331 109.383 94.7574 109.032 94.5026Z" fill="black"/>
<path d="M113.915 81.5C113.465 81.3863 112.988 81.456 112.589 81.694C112.19 81.9319 111.902 82.3185 111.789 82.7687C111.675 83.2189 111.745 83.6959 111.983 84.0946C112.221 84.4934 112.607 84.7813 113.057 84.895C113.508 85.0087 113.985 84.9389 114.383 84.701C114.782 84.463 115.07 84.0764 115.184 83.6262C115.297 83.176 115.228 82.6991 114.99 82.3003C114.752 81.9016 114.365 81.6137 113.915 81.5Z" fill="black"/>
<path d="M47.9053 114.75C47.6658 114.648 47.4065 114.601 47.1463 114.612C46.8862 114.623 46.6318 114.691 46.4016 114.813C46.1715 114.935 45.9714 115.106 45.8159 115.315C45.6605 115.524 45.5536 115.765 45.503 116.02C45.4525 116.276 45.4596 116.539 45.5237 116.792C45.5879 117.044 45.7076 117.279 45.874 117.479C46.0405 117.679 46.2495 117.84 46.4859 117.949C46.7222 118.058 46.98 118.113 47.2403 118.11C47.6419 118.105 48.0297 117.963 48.3385 117.706C48.6473 117.449 48.8585 117.094 48.9364 116.7C49.0144 116.306 48.9545 115.897 48.7667 115.542C48.579 115.187 48.2748 114.907 47.9053 114.75Z" fill="black"/>
<path d="M41.8858 111.635C41.491 111.457 41.044 111.431 40.6314 111.563C40.2188 111.695 39.8699 111.976 39.6522 112.35C39.4344 112.725 39.3633 113.167 39.4527 113.591C39.542 114.015 39.7854 114.39 40.1358 114.645C40.5305 114.823 40.9775 114.849 41.3901 114.717C41.8027 114.585 42.1516 114.304 42.3694 113.93C42.5871 113.555 42.6582 113.113 42.5689 112.689C42.4795 112.266 42.2361 111.89 41.8858 111.635Z" fill="black"/>
<path d="M54.31 116.797C53.9759 116.697 53.6195 116.699 53.2864 116.803C52.9533 116.906 52.6588 117.107 52.4407 117.38C52.2226 117.652 52.0909 117.983 52.0625 118.331C52.034 118.678 52.1101 119.027 52.281 119.331C52.452 119.635 52.7099 119.881 53.0217 120.038C53.3335 120.194 53.6849 120.254 54.0309 120.209C54.3769 120.164 54.7016 120.017 54.9634 119.787C55.2251 119.556 55.412 119.253 55.5 118.915C55.6143 118.477 55.5542 118.011 55.3322 117.616C55.1103 117.221 54.7439 116.928 54.31 116.797Z" fill="black"/>
<path d="M25.3655 95.115C25.1107 94.7646 24.735 94.5212 24.3111 94.4319C23.8871 94.3426 23.4451 94.4137 23.0706 94.6314C22.6961 94.8492 22.4156 95.1981 22.2835 95.6107C22.1514 96.0233 22.1771 96.4702 22.3555 96.865C22.6103 97.2154 22.986 97.4588 23.4099 97.5481C23.8339 97.6374 24.2758 97.5664 24.6504 97.3486C25.0249 97.1309 25.3054 96.7819 25.4375 96.3693C25.5696 95.9567 25.5439 95.5098 25.3655 95.115Z" fill="black"/>
<path d="M22.3379 89.0775C22.1592 88.6482 21.8173 88.3075 21.3874 88.1302C20.9575 87.953 20.4748 87.9539 20.0454 88.1325C19.6161 88.3112 19.2754 88.6532 19.0981 89.0831C18.9209 89.513 18.9217 89.9957 19.1004 90.425C19.2791 90.8544 19.621 91.1951 20.051 91.3723C20.4809 91.5496 20.9636 91.5487 21.3929 91.37C21.8223 91.1914 22.163 90.8494 22.3402 90.4195C22.5175 89.9896 22.5166 89.5069 22.3379 89.0775Z" fill="black"/>
<path d="M20.2022 82.6899C20.0559 82.2794 19.7617 81.9383 19.3772 81.7332C18.9927 81.5281 18.5455 81.4739 18.1231 81.5812C17.7007 81.6884 17.3335 81.9494 17.0934 82.313C16.8532 82.6767 16.7574 83.1169 16.8247 83.5474C16.971 83.9579 17.2651 84.2991 17.6497 84.5042C18.0342 84.7092 18.4814 84.7635 18.9038 84.6562C19.3262 84.549 19.6934 84.288 19.9335 83.9243C20.1736 83.5607 20.2694 83.1205 20.2022 82.6899Z" fill="black"/>
<path d="M90.1154 111.635C89.8177 111.812 89.5789 112.072 89.4294 112.385C89.2799 112.697 89.2264 113.046 89.2756 113.389C89.3247 113.732 89.4744 114.052 89.7056 114.309C89.9368 114.567 90.2393 114.75 90.5746 114.836C90.91 114.922 91.2633 114.906 91.5897 114.791C91.9162 114.676 92.2011 114.466 92.4086 114.189C92.6161 113.912 92.7367 113.58 92.7553 113.234C92.7739 112.889 92.6895 112.545 92.5129 112.248C92.2762 111.848 91.8906 111.56 91.441 111.445C90.9914 111.33 90.5146 111.398 90.1154 111.635Z" fill="black"/>
<path d="M84.0774 114.75C83.7583 114.884 83.486 115.109 83.2948 115.397C83.1036 115.685 83.002 116.023 83.0029 116.369C83.0039 116.715 83.1072 117.053 83.3 117.34C83.4928 117.627 83.7663 117.851 84.086 117.982C84.4057 118.114 84.7573 118.148 85.0964 118.08C85.4355 118.012 85.7469 117.846 85.9913 117.601C86.2356 117.356 86.402 117.045 86.4694 116.705C86.5368 116.366 86.5021 116.015 86.3699 115.695C86.2817 115.482 86.1525 115.289 85.9894 115.126C85.8264 114.963 85.6329 114.834 85.4199 114.746C85.2069 114.659 84.9786 114.614 84.7483 114.614C84.5179 114.615 84.2899 114.661 84.0774 114.75Z" fill="black"/>
<path d="M77.6901 116.797C77.3536 116.881 77.0496 117.063 76.8167 117.32C76.5838 117.577 76.4325 117.897 76.382 118.24C76.3314 118.584 76.384 118.934 76.5329 119.247C76.6818 119.56 76.9204 119.822 77.2184 119.999C77.5164 120.177 77.8604 120.261 78.2067 120.243C78.5529 120.224 78.8859 120.104 79.1633 119.895C79.4407 119.687 79.6501 119.402 79.7648 119.074C79.8795 118.747 79.8944 118.393 79.8076 118.057C79.6921 117.611 79.4047 117.228 79.0082 116.992C78.6116 116.756 78.1379 116.686 77.6901 116.797Z" fill="black"/>
<path d="M109.75 52.9226C109.95 53.3166 110.291 53.6204 110.706 53.773C111.121 53.9255 111.578 53.9154 111.986 53.7448C112.393 53.5742 112.721 53.2557 112.904 52.8532C113.086 52.4508 113.11 51.9942 112.97 51.5751C112.77 51.181 112.428 50.8772 112.013 50.7247C111.598 50.5722 111.141 50.5822 110.734 50.7528C110.326 50.9234 109.998 51.242 109.815 51.6444C109.633 52.0469 109.609 52.5035 109.75 52.9226Z" fill="black"/>
<path d="M109.032 47.4975C109.383 47.2426 109.626 46.8669 109.715 46.443C109.805 46.0191 109.734 45.5771 109.516 45.2026C109.298 44.828 108.949 44.5476 108.537 44.4155C108.124 44.2834 107.677 44.309 107.282 44.4875C106.932 44.7423 106.688 45.118 106.599 45.5419C106.51 45.9658 106.581 46.4078 106.799 46.7823C107.016 47.1569 107.365 47.4373 107.778 47.5694C108.191 47.7015 108.637 47.6759 109.032 47.4975Z" fill="black"/>
<path d="M111.798 59.3101C111.944 59.7206 112.238 60.0617 112.623 60.2668C113.007 60.4719 113.454 60.5261 113.877 60.4188C114.299 60.3116 114.666 60.0506 114.906 59.687C115.146 59.3233 115.242 58.8831 115.175 58.4526C115.175 56.4576 111.133 56.7551 111.798 59.3101Z" fill="black"/>
<path d="M47.2399 27.4774C47.5287 27.4772 47.813 27.4055 48.0674 27.2687C48.3218 27.1318 48.5384 26.9342 48.6978 26.6933C48.8572 26.4525 48.9545 26.1759 48.9811 25.8883C49.0076 25.6006 48.9626 25.3109 48.8499 25.0449C48.6718 24.6194 48.3329 24.2813 47.9068 24.1043C47.4808 23.9274 47.0021 23.9258 46.5749 24.0999C46.1943 24.2503 45.8784 24.5293 45.6821 24.8884C45.4859 25.2476 45.4217 25.6641 45.5007 26.0657C45.5798 26.4672 45.7971 26.8283 46.1148 27.0863C46.4326 27.3442 46.8307 27.4826 47.2399 27.4774Z" fill="black"/>
<path d="M42.4983 27.9675C42.2435 27.6172 41.8678 27.3738 41.4439 27.2844C41.0199 27.1951 40.578 27.2662 40.2034 27.4839C39.8289 27.7017 39.5484 28.0506 39.4163 28.4632C39.2842 28.8758 39.3099 29.3228 39.4883 29.7175C39.7431 30.0679 40.1188 30.3113 40.5428 30.4007C40.9667 30.49 41.4087 30.4189 41.7832 30.2011C42.1577 29.9834 42.4382 29.6345 42.5703 29.2219C42.7024 28.8093 42.6767 28.3623 42.4983 27.9675Z" fill="black"/>
<path d="M54.3102 25.22C54.7207 25.0737 55.0619 24.7795 55.267 24.395C55.472 24.0105 55.5262 23.5633 55.419 23.1409C55.3118 22.7185 55.0508 22.3513 54.6871 22.1112C54.3235 21.8711 53.8833 21.7752 53.4527 21.8425C53.0608 22.0017 52.7398 22.2975 52.5491 22.6751C52.3585 23.0528 52.3111 23.4867 52.4157 23.8966C52.5203 24.3065 52.7698 24.6646 53.1181 24.9047C53.4664 25.1448 53.8899 25.2506 54.3102 25.2025V25.22Z" fill="black"/>
</g>
<defs>
<clipPath id="clip0">
<rect width="112" height="112" fill="white" transform="translate(10 15)"/>
</clipPath>
</defs>
</svg>
