<svg width="126" height="130" viewBox="0 0 126 130" fill="none" xmlns="http://www.w3.org/2000/svg">
<path fill-rule="evenodd" clip-rule="evenodd" d="M64.0359 11.8778C80.0414 8.9253 97.6712 -6.43925 110.845 3.06481C124.017 12.5677 114.148 34.0786 116.906 50.0207C119.11 62.7545 128.535 74.3648 125.349 86.8916C122.086 99.7217 111.059 108.911 100.04 116.342C89.3121 123.577 76.9252 126.852 64.0359 128.243C49.6606 129.795 34.0491 132.515 21.8614 124.782C9.43482 116.897 1.84765 102.274 0.164888 87.7175C-1.37512 74.3963 8.25024 63.1445 13.2982 50.7095C17.892 39.3931 18.6236 25.7276 28.3518 18.2822C38.1685 10.7691 51.8536 14.1251 64.0359 11.8778Z" fill="#FFEBD3"/>
<g clip-path="url(#clip0)">
<rect x="17.6094" y="35.4844" width="99.7812" height="69.2031" fill="#F9ECF0"/>
<path d="M117.391 104.688V101.469H17.6094V104.688H117.391Z" fill="#F9ECF0"/>
<path d="M117.391 22.6094H17.6094V35.4844H117.391V22.6094Z" fill="#F03E4E"/>
<path d="M82.7892 90.6216C79.3129 93.8403 77.1563 96.6407 77.1563 101.469H57.8438C57.8438 96.6407 55.7195 93.8564 52.2593 90.686C37.5174 77.135 46.5782 52.5277 66.4057 51.5782C87.5529 50.6125 98.0782 76.5557 82.7892 90.6216Z" fill="#FFE069"/>
<path d="M77.542 98.25C77.2752 99.3018 77.1454 100.384 77.1558 101.469H57.8433C57.8557 100.384 57.7258 99.3014 57.457 98.25H77.542Z" fill="#DD8B37"/>
<path d="M57.8438 101.469H77.1562V112.734C77.1562 114.015 76.6476 115.243 75.7421 116.148C74.8367 117.054 73.6086 117.562 72.3281 117.562H62.6719C61.3914 117.562 60.1633 117.054 59.2579 116.148C58.3524 115.243 57.8438 114.015 57.8438 112.734V101.469Z" fill="#1813AC"/>
<path d="M67.5 122.391C64.0881 122.391 63.3317 119.526 62.6719 117.562H72.3281L71.7327 119.333C71.4382 120.223 70.8707 120.997 70.1109 121.546C69.351 122.095 68.4374 122.391 67.5 122.391Z" fill="#42455E"/>
<path d="M117.391 21H17.6094C17.1825 21 16.7732 21.1696 16.4714 21.4714C16.1696 21.7732 16 22.1825 16 22.6094V104.688C16 105.114 16.1696 105.524 16.4714 105.826C16.7732 106.127 17.1825 106.297 17.6094 106.297H54.625C54.625 106.724 54.7946 107.133 55.0964 107.435C55.3982 107.737 55.8075 107.906 56.2344 107.906V109.516C55.8075 109.516 55.3982 109.685 55.0964 109.987C54.7946 110.289 54.625 110.698 54.625 111.125C54.625 111.552 54.7946 111.961 55.0964 112.263C55.3982 112.565 55.8075 112.734 56.2344 112.734C56.2378 114.23 56.7617 115.677 57.7161 116.829C58.6705 117.98 59.996 118.763 61.4648 119.043C63.6697 125.625 71.2981 125.77 73.5352 119.043C74.7279 118.812 75.8308 118.248 76.7165 117.416C77.6022 116.585 78.2345 115.52 78.5403 114.344C78.9671 114.389 79.3943 114.262 79.7278 113.992C80.0613 113.722 80.2739 113.33 80.3187 112.903C80.3635 112.477 80.2369 112.049 79.9668 111.716C79.6967 111.382 79.3051 111.17 78.8783 111.125C78.7173 111.125 78.7656 111.366 78.7656 109.516C79.1925 109.516 79.6018 109.346 79.9036 109.044C80.2054 108.742 80.375 108.333 80.375 107.906C80.375 107.479 80.2054 107.07 79.9036 106.768C79.6018 106.466 79.1925 106.297 78.7656 106.297H117.391C117.817 106.297 118.227 106.127 118.529 105.826C118.83 105.524 119 105.114 119 104.688V22.6094C119 22.1825 118.83 21.7732 118.529 21.4714C118.227 21.1696 117.817 21 117.391 21ZM19.2188 24.2188H115.781V33.875H19.2188V24.2188ZM59.4531 103.078H75.5469V106.055L59.4531 104.913V103.078ZM75.5469 99.8594H59.4531C59.0347 95.4819 56.7977 92.585 53.4341 89.495C50.3979 86.7085 48.2522 83.0874 47.2663 79.086C46.2804 75.0846 46.4981 70.8811 47.8923 67.003C49.2864 63.1249 51.7948 59.7449 55.1027 57.2871C58.4106 54.8293 62.3707 53.4031 66.4861 53.1875C86.0239 52.2541 95.9216 76.2659 81.6947 89.4145C78.2989 92.585 76.0619 95.498 75.6273 99.8594H75.5469ZM64.925 119.172H70.075C69.8397 119.654 69.4736 120.061 69.0183 120.346C68.563 120.63 68.0369 120.781 67.5 120.781C66.9631 120.781 66.437 120.63 65.9817 120.346C65.5264 120.061 65.1603 119.654 64.925 119.172ZM72.3281 115.953H62.6719C61.8584 115.955 61.0743 115.65 60.4771 115.097C59.88 114.545 59.5141 113.787 59.4531 112.976L75.225 114.102C74.9664 114.653 74.5571 115.119 74.0443 115.447C73.5316 115.774 72.9365 115.95 72.3281 115.953ZM59.4531 109.741V108.132L75.5469 109.274V110.884L59.4531 109.741ZM78.7656 103.078C78.7656 98.5558 78.9588 96.3509 83.8834 91.8125C87.4584 88.521 89.9568 84.2273 91.0519 79.4928C92.1469 74.7584 91.7877 69.8037 90.0211 65.2767C88.2545 60.7498 85.1628 56.8613 81.1504 54.12C77.138 51.3787 72.3916 49.9122 67.5322 49.9122C62.6727 49.9122 57.9264 51.3787 53.914 54.12C49.9016 56.8613 46.8099 60.7498 45.0433 65.2767C43.2767 69.8037 42.9174 74.7584 44.0125 79.4928C45.1076 84.2273 47.606 88.521 51.1809 91.8125C56.0091 96.2705 56.2344 98.4753 56.2344 103.078H19.2188V37.0938H115.781V103.078H78.7656Z" fill="black"/>
<path d="M25.6562 27.4375C25.2294 27.4375 24.8201 27.6071 24.5183 27.9089C24.2164 28.2107 24.0469 28.62 24.0469 29.0469C24.0469 29.4737 24.2164 29.8831 24.5183 30.1849C24.8201 30.4867 25.2294 30.6562 25.6562 30.6562C26.0831 30.6562 26.4924 30.4867 26.7942 30.1849C27.0961 29.8831 27.2656 29.4737 27.2656 29.0469C27.2656 28.62 27.0961 28.2107 26.7942 27.9089C26.4924 27.6071 26.0831 27.4375 25.6562 27.4375Z" fill="black"/>
<path d="M33.7031 27.4375C33.2763 27.4375 32.8669 27.6071 32.5651 27.9089C32.2633 28.2107 32.0938 28.62 32.0938 29.0469C32.0938 29.4737 32.2633 29.8831 32.5651 30.1849C32.8669 30.4867 33.2763 30.6562 33.7031 30.6562C34.13 30.6562 34.5393 30.4867 34.8411 30.1849C35.1429 29.8831 35.3125 29.4737 35.3125 29.0469C35.3125 28.62 35.1429 28.2107 34.8411 27.9089C34.5393 27.6071 34.13 27.4375 33.7031 27.4375Z" fill="black"/>
<path d="M41.75 27.4375C41.3232 27.4375 40.9138 27.6071 40.612 27.9089C40.3102 28.2107 40.1406 28.62 40.1406 29.0469C40.1406 29.4737 40.3102 29.8831 40.612 30.1849C40.9138 30.4867 41.3232 30.6562 41.75 30.6562C42.1768 30.6562 42.5862 30.4867 42.888 30.1849C43.1898 29.8831 43.3594 29.4737 43.3594 29.0469C43.3594 28.62 43.1898 28.2107 42.888 27.9089C42.5862 27.6071 42.1768 27.4375 41.75 27.4375Z" fill="black"/>
<path d="M101.297 72.5H96.4688C96.0419 72.5 95.6326 72.6696 95.3307 72.9714C95.0289 73.2732 94.8594 73.6825 94.8594 74.1094C94.8594 74.5362 95.0289 74.9456 95.3307 75.2474C95.6326 75.5492 96.0419 75.7188 96.4688 75.7188H101.297C101.724 75.7188 102.133 75.5492 102.435 75.2474C102.737 74.9456 102.906 74.5362 102.906 74.1094C102.906 73.6825 102.737 73.2732 102.435 72.9714C102.133 72.6696 101.724 72.5 101.297 72.5Z" fill="black"/>
<path d="M38.5312 72.5H33.7031C33.2763 72.5 32.8669 72.6696 32.5651 72.9714C32.2633 73.2732 32.0938 73.6825 32.0938 74.1094C32.0938 74.5362 32.2633 74.9456 32.5651 75.2474C32.8669 75.5492 33.2763 75.7188 33.7031 75.7188H38.5312C38.9581 75.7188 39.3674 75.5492 39.6692 75.2474C39.9711 74.9456 40.1406 74.5362 40.1406 74.1094C40.1406 73.6825 39.9711 73.2732 39.6692 72.9714C39.3674 72.6696 38.9581 72.5 38.5312 72.5Z" fill="black"/>
<path d="M65.8906 40.3125V45.1406C65.8906 45.5675 66.0602 45.9768 66.362 46.2786C66.6638 46.5804 67.0732 46.75 67.5 46.75C67.9268 46.75 68.3362 46.5804 68.638 46.2786C68.9398 45.9768 69.1094 45.5675 69.1094 45.1406V40.3125C69.1094 39.8857 68.9398 39.4763 68.638 39.1745C68.3362 38.8727 67.9268 38.7031 67.5 38.7031C67.0732 38.7031 66.6638 38.8727 66.362 39.1745C66.0602 39.4763 65.8906 39.8857 65.8906 40.3125Z" fill="black"/>
<path d="M89.1138 93.4219C88.8065 93.1167 88.3905 92.9461 87.9574 92.9476C87.5243 92.9492 87.1095 93.1226 86.8044 93.43C86.4992 93.7373 86.3286 94.1533 86.3301 94.5864C86.3316 95.0195 86.5051 95.4342 86.8124 95.7394C90.5301 99.441 90.4979 99.618 91.3669 99.618C91.6866 99.6199 91.9996 99.5265 92.266 99.3498C92.5323 99.1731 92.7401 98.921 92.8626 98.6258C92.9852 98.3306 93.0171 98.0055 92.9542 97.6921C92.8914 97.3787 92.7366 97.0911 92.5096 96.866L89.1138 93.4219Z" fill="black"/>
<path d="M44.743 49.0675C44.4399 48.7644 44.0289 48.5942 43.6003 48.5942C43.1718 48.5942 42.7607 48.7644 42.4577 49.0675C42.1546 49.3705 41.9844 49.7816 41.9844 50.2101C41.9844 50.6387 42.1546 51.0497 42.4577 51.3528C46.1753 55.0544 46.1432 55.2314 47.0122 55.2314C47.3346 55.2398 47.6521 55.1512 47.9235 54.977C48.195 54.8028 48.4078 54.5511 48.5344 54.2544C48.6611 53.9578 48.6956 53.63 48.6337 53.3135C48.5718 52.997 48.4162 52.7064 48.1871 52.4794L44.743 49.0675Z" fill="black"/>
<path d="M44.7437 99.1513L48.1877 95.7394C48.495 95.4342 48.6685 95.0195 48.6701 94.5864C48.6716 94.1533 48.501 93.7373 48.1958 93.43C47.8906 93.1226 47.4758 92.9492 47.0427 92.9476C46.6096 92.9461 46.1936 93.1167 45.8863 93.4219L42.4584 96.8338C42.151 97.1369 41.9767 97.5496 41.9737 97.9812C41.9707 98.4128 42.1392 98.8279 42.4423 99.1352C42.7453 99.4425 43.158 99.6169 43.5896 99.6199C44.0212 99.6229 44.4363 99.4544 44.7437 99.1513Z" fill="black"/>
<path d="M90.2565 49.0675L86.8124 52.4794C86.6602 52.6305 86.5393 52.8101 86.4566 53.0079C86.3738 53.2058 86.3308 53.418 86.3301 53.6324C86.3293 53.8469 86.3708 54.0594 86.4522 54.2578C86.5336 54.4562 86.6533 54.6367 86.8044 54.7888C86.9555 54.941 87.1351 55.0619 87.3329 55.1447C87.5308 55.2274 87.743 55.2704 87.9574 55.2712C88.1719 55.2719 88.3844 55.2304 88.5828 55.149C88.7812 55.0677 88.9617 54.948 89.1138 54.7969L92.5418 51.385C92.8491 51.082 93.0235 50.6692 93.0265 50.2376C93.0295 49.806 92.8609 49.3909 92.5579 49.0836C92.2548 48.7763 91.8421 48.6019 91.4105 48.5989C90.9789 48.5959 90.5638 48.7645 90.2565 49.0675Z" fill="black"/>
</g>
<defs>
<clipPath id="clip0">
<rect width="103" height="103" fill="white" transform="translate(16 21)"/>
</clipPath>
</defs>
</svg>
