<svg width="453" height="404" viewBox="0 0 453 404" fill="none" xmlns="http://www.w3.org/2000/svg">
<path fill-rule="evenodd" clip-rule="evenodd" d="M46.6522 138.466C60.1237 107.206 117.738 117.17 154.264 105.467C183.444 96.1174 206.441 77.7487 238.927 76.8606C275.988 75.8476 317.121 78.7283 348.608 100.155C380.502 121.858 394.72 156.621 403.775 189.036C412.25 219.373 408.766 249.015 397.816 276.307C386.924 303.455 372.482 331.773 341.925 343.196C312.386 354.239 275.865 340.075 241.543 334.729C209.06 329.669 174.304 331.364 147.155 312.858C119.609 294.083 113.026 263.264 97.7127 236.692C78.6436 203.603 33.2683 169.523 46.6522 138.466Z" fill="#F03E4E"/>
<circle cx="312.5" cy="348.5" r="55.5" fill="#FFE069"/>
<circle cx="177.5" cy="68.5" r="14.5" fill="white"/>
<circle cx="141.5" cy="87.5" r="11.5" fill="white"/>
<circle cx="105" cy="95" r="8" fill="white"/>
</svg>
